<svg xmlns="http://www.w3.org/2000/svg" xmlns:xlink="http://www.w3.org/1999/xlink" width="791" height="160" viewBox="0 0 791 160">
  <defs>
    <circle id="banner-a" cx="70" cy="70" r="70"/>
  </defs>
  <g fill="none" fill-rule="evenodd">
    <g transform="translate(10 10)">
      <mask id="banner-b" fill="#fff">
        <use xlink:href="#banner-a"/>
      </mask>
      <use fill="#1B1D23" xlink:href="#banner-a"/>
      <g mask="url(#banner-b)">
        <g transform="translate(9.398 20.417)">
          <path fill="#F8F8F8" d="M22.6937009 97.833029C24.6402321 101.500852 23.9057809 110.267585 20.4903472 124.133226 23.7896983 126.024348 27.7024311 126.024348 32.2285456 124.133226 30.279798 112.459579 35.2949003 102.806297 47.2738524 95.1733792 42.0071916 90.4954429 33.8138078 91.3819929 22.6937009 97.833029zM50.1364915 124.874765C53.9014556 112.42524 56.6725329 105.161349 58.4497234 103.083092 56.9319321 101.826743 55.3423464 100.658017 53.6809663 99.5769146 45.7429441 104.860079 41.2154077 113.292695 40.0983574 124.874765 43.9756597 126.374174 47.3217044 126.374174 50.1364915 124.874765z"/>
          <path fill="#FFF" d="M0.733089916,126.578685 C2.68799636,116.981119 3.66544958,109.323398 3.66544958,103.605522 C3.66544958,97.8876469 2.68799636,91.6226838 0.733089916,84.810633 C-0.244363305,80.7249625 -0.244363305,76.5048948 0.733089916,72.15043 C2.19926975,65.6187328 11.8724747,39.306103 52.4430387,41.5617167 C52.7711235,39.9187935 49.5521757,52.6211563 53.8355166,60.83363 C55.0464636,52.6970833 67.6729433,62.5492265 71.5851249,52.1105032 C72.5387811,49.5658991 70.1047723,46.527772 64.1432026,45.7471163 C58.1816329,44.9664605 56.0063218,42.2211276 56.0063218,36.7460614 C56.0063218,28.7004505 67.9509411,21.98799 75.0338426,21.98799 C90.4789967,21.98799 88.0408232,28.7004505 96.9474703,28.7004505 C105.854117,28.7004505 107.856278,21.2176243 106.855197,18.7927233 C105.854117,16.3678223 104.485645,12.4815421 96.9474703,12.4815421 C89.4092953,12.4815421 88.6699928,3.23150611 92.8087316,1.04974467 C96.9474703,-1.13201676 100.783824,0.338290896 102.936217,3.15656415 C99.422407,3.77975643 97.2594938,5.13762194 96.4474776,7.23016066 C100.625588,3.85004019 105.602729,4.22529596 111.378901,8.35592798 C116.295932,11.8721749 121.408275,17.7238761 121.408275,28.7004505 C121.408275,41.8828907 112.82619,48.7534907 95.6620214,49.3122505 C91.5903066,55.3268573 92.4379072,61.1424352 98.2048233,66.7589841 C97.3636274,71.4753739 95.8574623,65.7904931 87.0788404,65.6187328 C78.3002186,65.4469725 75.7830446,77.8510822 75.7830446,87.2075238 C75.7830446,96.5639654 66.8144465,104.718319 64.1432026,104.718319 C62.8709389,108.427729 64.1990951,116.545415 68.1276711,129.071377 C66.8709158,130.320717 63.9426215,130.945387 59.3427884,130.945387 C54.7429552,130.945387 51.7384909,130.320717 50.3293955,129.071377 C52.8653397,120.564204 53.3149887,113.159454 51.6783425,106.857128 C50.6956624,103.073067 48.8439553,98.9905033 46.1232211,94.6094381 C40.6140285,96.9312071 33.8479356,97.7558471 25.8249424,97.0833582 C12.9847133,101.258346 13.7320492,118.885261 18.5296283,126.578685 C12.152513,129.48982 6.22033352,129.48982 0.733089916,126.578685 Z"/>
        </g>
      </g>
    </g>
    <path fill="#1B1D23" fill-rule="nonzero" d="M200.197819,101.479663 C203.1572,103.892018 206.37648,105.862077 209.855753,107.389902 C213.335026,108.917726 216.794251,109.681627 220.233533,109.681627 C224.312681,109.681627 227.292014,108.998137 229.171621,107.631136 C231.051228,106.264135 231.991018,104.414691 231.991018,102.082749 C231.991018,100.876572 231.711081,99.831234 231.151198,98.9467041 C230.591315,98.0621742 229.791494,97.2781708 228.751711,96.5946704 C227.711928,95.91117 226.45221,95.2678852 224.972519,94.6647966 C223.492828,94.0617081 221.793209,93.3983206 219.87361,92.6746143 L209.795766,88.3323983 C207.636217,87.5282802 205.536687,86.4829424 203.497113,85.1963534 C201.457539,83.9097645 199.677937,82.4020657 198.158255,80.6732118 C196.638572,78.9443579 195.418845,76.9340928 194.499038,74.6423562 C193.57923,72.3506197 193.119333,69.7573777 193.119333,66.8625526 C193.119333,63.6460802 193.819176,60.61058 195.218884,57.7559607 C196.618591,54.9013415 198.578153,52.4086128 201.097626,50.2776999 C203.6171,48.1467869 206.636424,46.4782669 210.155689,45.2720898 C213.674953,44.0659126 217.554085,43.4628331 221.793199,43.4628331 C226.592197,43.4628331 231.231158,44.3473497 235.710222,46.1164095 C240.189287,47.8854693 244.228382,50.4586086 247.82763,53.8359046 L238.829555,65.0532959 C236.110123,63.0430007 233.430723,61.4950966 230.791275,60.4095372 C228.151826,59.3239777 225.152498,58.7812062 221.793199,58.7812062 C218.353918,58.7812062 215.694513,59.4043883 213.814906,60.6507714 C211.935299,61.8971544 210.995509,63.646085 210.995509,65.8976157 C210.995509,68.30997 212.19524,70.1192086 214.594739,71.3253857 C216.994238,72.5315628 220.073548,73.8181325 223.832763,75.1851332 L233.310736,79.286115 C238.50965,81.2159984 242.608732,83.8695483 245.608105,87.2468443 C248.607479,90.6241403 250.107143,95.0869288 250.107143,100.635344 C250.107143,103.932228 249.427295,107.048139 248.067579,109.98317 C246.707863,112.918201 244.748302,115.49134 242.188837,117.702665 C239.629371,119.91399 236.470079,121.683023 232.710864,123.009818 C228.951649,124.336613 224.632616,125 219.753636,125 C214.474738,125 209.255907,124.055175 204.096985,122.165498 C198.938062,120.27582 194.239114,117.441347 190,113.661992 L200.197819,101.479663 Z M263.30432,106.907433 C263.30432,103.530137 264.024159,100.575048 265.463858,98.0420757 C266.903557,95.5091037 269.203042,93.3581201 272.362382,91.5890603 C275.521722,89.8200005 279.580814,88.3927123 284.539778,87.3071529 C289.498742,86.2215935 295.497399,85.4777954 302.535928,85.0757363 C302.215995,82.3417348 301.036259,80.2108538 298.996685,78.6830295 C296.957111,77.1552051 293.897796,76.3913043 289.818648,76.3913043 C286.93925,76.3913043 284.039899,76.8938706 281.120509,77.8990182 C278.201119,78.9041658 275.061822,80.2510435 271.702524,81.9396914 L265.463858,70.3604488 C269.543006,68.0285063 273.922025,66.0986519 278.601048,64.5708275 C283.28007,63.0430031 288.178974,62.2791024 293.297904,62.2791024 C301.616166,62.2791024 308.174698,64.490394 312.973695,68.9130435 C317.772693,73.335693 320.172156,80.1303889 320.172156,89.2973352 L320.172156,123.552595 L305.775235,123.552595 L304.455518,116.798036 L303.97562,116.798036 C300.936255,119.129979 297.616998,121.079936 294.01775,122.647966 C290.418502,124.215997 286.699335,125 282.860137,125 C279.820772,125 277.101381,124.537639 274.701882,123.612903 C272.302383,122.688167 270.26284,121.401598 268.583191,119.753156 C266.903542,118.104714 265.603833,116.194962 264.684025,114.023843 C263.764217,111.852724 263.30432,109.480611 263.30432,106.907433 Z M280.220701,105.580645 C280.220701,107.510529 280.960536,108.937817 282.440227,109.862553 C283.919918,110.787288 285.939465,111.249649 288.498931,111.249649 C291.138379,111.249649 293.617824,110.706878 295.93734,109.621318 C298.256855,108.535759 300.456363,107.188881 302.535928,105.580645 L302.535928,95.6900421 C298.136847,95.9312775 294.497662,96.3333305 291.618263,96.8962132 C288.738865,97.4590958 286.459375,98.1626886 284.779726,99.0070126 C283.100077,99.8513366 281.920341,100.836367 281.240483,101.962132 C280.560625,103.087897 280.220701,104.294056 280.220701,105.580645 Z M335.408896,39 L370.321429,39 L370.321429,100.876578 C370.321429,102.726049 370.58137,104.273954 371.101262,105.520337 C371.621153,106.76672 372.340992,107.771852 373.2608,108.535764 C374.180608,109.299677 375.220375,109.842448 376.380133,110.164095 C377.53989,110.485743 378.719626,110.646564 379.919376,110.646564 C381.279091,110.646564 382.718769,110.505845 384.238452,110.224404 C385.758134,109.942963 387.437758,109.440396 389.277374,108.71669 L393.236527,121.743338 C391.636861,122.225809 390.157192,122.668067 388.797476,123.070126 C387.437761,123.472185 386.078065,123.81393 384.718349,124.095372 C383.358633,124.376813 381.918955,124.597942 380.399273,124.758766 C378.87959,124.919589 377.199966,125 375.360351,125 C367.841921,125 362.183188,122.768606 358.383982,118.30575 C354.584776,113.842895 352.685201,107.791997 352.685201,100.152875 L352.685201,52.9915849 L335.408896,52.9915849 L335.408896,39 Z M420.830624,77.5974755 L405.833832,77.5974755 L405.833832,64.4502104 L421.670445,63.7265077 L423.949957,47.8050491 L438.466852,47.8050491 L438.466852,63.7265077 L463.661463,63.7265077 L463.661463,77.5974755 L438.466852,77.5974755 L438.466852,98.5848527 C438.466852,103.168326 439.466628,106.404853 441.46621,108.29453 C443.465793,110.184208 446.625085,111.129032 450.944183,111.129032 C453.263699,111.129032 455.383224,110.928006 457.302823,110.525947 C459.222422,110.123888 461.06201,109.601219 462.821642,108.957924 L465.940975,121.743338 C463.301527,122.547456 460.362185,123.291254 457.122861,123.974755 C453.883538,124.658255 450.344331,125 446.505133,125 C441.786118,125 437.787014,124.356715 434.507699,123.070126 C431.228384,121.783537 428.568979,119.994401 426.529405,117.702665 C424.489832,115.410928 423.030158,112.656865 422.150342,109.440393 C421.270526,106.22392 420.830624,102.645648 420.830624,98.7054698 L420.830624,77.5974755 Z M478.538281,93.6395512 C478.538281,88.7344308 479.398088,84.352053 481.117729,80.4922861 C482.83737,76.6325193 485.136855,73.3557872 488.016253,70.6619916 C490.895652,67.968196 494.194913,65.8976229 497.914136,64.4502104 C501.633359,63.0027978 505.492495,62.2791024 509.49166,62.2791024 C514.050707,62.2791024 518.089803,63.0027978 521.609068,64.4502104 C525.128332,65.8976229 528.047679,67.907888 530.367194,70.4810659 C532.68671,73.0542438 534.446316,76.0897441 535.646065,79.5876578 C536.845814,83.0855715 537.44568,86.8849725 537.44568,90.9859748 C537.44568,92.5942109 537.365698,94.1220124 537.205731,95.569425 C537.045765,97.0168375 536.885801,98.1023807 536.725834,98.826087 L496.654405,98.826087 C497.294272,103.329148 499.233838,106.565675 502.473161,108.535764 C505.712484,110.505854 509.531629,111.490884 513.93071,111.490884 C516.650142,111.490884 519.229564,111.149139 521.669055,110.465638 C524.108545,109.782138 526.647977,108.756903 529.287425,107.389902 L535.046193,118.004208 C531.686895,120.175326 527.927737,121.884052 523.768606,123.130435 C519.609474,124.376818 515.530388,125 511.531223,125 C506.892192,125 502.573159,124.296407 498.573995,122.889201 C494.57483,121.481994 491.095609,119.431524 488.136228,116.737728 C485.176846,114.043932 482.83737,110.7672 481.117729,106.907433 C479.398088,103.047667 478.538281,98.6250834 478.538281,93.6395512 Z M521.489093,87.1262272 C521.489093,83.7489312 520.569299,81.0149707 518.729683,78.9242637 C516.890068,76.8335566 513.93073,75.7882188 509.851583,75.7882188 C506.652251,75.7882188 503.812887,76.7129407 501.333405,78.5624123 C498.853923,80.411884 497.21429,83.2664604 496.414457,87.1262272 L521.489093,87.1262272 Z M622.507485,84.713885 C622.507485,78.2005284 623.46727,72.3908624 625.386869,67.2847125 C627.306468,62.1785626 629.945877,57.8564927 633.305175,54.3183731 C636.664474,50.7802535 640.623587,48.0864983 645.182635,46.2370266 C649.741682,44.387555 654.62059,43.4628331 659.819504,43.4628331 C664.858451,43.4628331 669.317453,44.4880683 673.196642,46.5385694 C677.075832,48.5890706 680.335102,50.9008754 682.974551,53.4740533 L673.25663,64.4502104 C671.417014,62.7615624 669.417462,61.3945821 667.257913,60.3492286 C665.098364,59.3038751 662.618919,58.7812062 659.819504,58.7812062 C657.020089,58.7812062 654.460662,59.364183 652.141146,60.5301543 C649.821631,61.6961255 647.802083,63.3646455 646.082442,65.5357644 C644.362801,67.7068832 643.023101,70.3604331 642.063302,73.4964937 C641.103502,76.6325542 640.62361,80.1706208 640.62361,84.1107994 C640.62361,92.2323922 642.463198,98.5245219 646.142429,102.987377 C649.821661,107.450233 654.620586,109.681627 660.53935,109.681627 C663.338765,109.681627 665.878196,109.038342 668.15772,107.751753 C670.437244,106.465164 672.536774,104.776542 674.456373,102.685835 L684.174294,113.420757 C677.615664,121.140291 669.377509,125 659.459581,125 C654.420633,125 649.661699,124.135586 645.182635,122.406732 C640.70357,120.677878 636.784448,118.124842 633.42515,114.747546 C630.065851,111.37025 627.406447,107.168796 625.446856,102.143058 C623.487266,97.1173194 622.507485,91.3076534 622.507485,84.713885 Z M696.7716,108.596073 L715.007699,108.596073 L715.007699,59.8667602 L696.7716,59.8667602 L696.7716,44.9102384 L751,44.9102384 L751,59.8667602 L732.763901,59.8667602 L732.763901,108.596073 L751,108.596073 L751,123.552595 L696.7716,123.552595 L696.7716,108.596073 Z"/>
  </g>
</svg>
