<svg xmlns="http://www.w3.org/2000/svg" xmlns:xlink="http://www.w3.org/1999/xlink" width="180" height="180" viewBox="0 0 180 180">
  <defs>
    <circle id="logo-a" cx="90" cy="90" r="90"/>
  </defs>
  <g fill="none" fill-rule="evenodd">
    <mask id="logo-b" fill="#fff">
      <use xlink:href="#logo-a"/>
    </mask>
    <use fill="#1B1D23" xlink:href="#logo-a"/>
    <g mask="url(#logo-b)">
      <g transform="translate(12.083 26.25)">
        <path fill="#F8F8F8" d="M29.1776155 125.785323C31.6802985 130.501096 30.736004 141.772609 26.3447322 159.599862 30.5867549 162.031304 35.6174114 162.031304 41.4367015 159.599862 38.9311689 144.590888 45.3791575 132.179525 60.7806674 122.365773 54.0092464 116.351284 43.4748957 117.491134 29.1776155 125.785323zM64.4612034 160.553269C69.3018715 144.546737 72.8646852 135.207449 75.1496444 132.535404 73.1981984 130.920098 71.1544453 129.41745 69.0183853 128.027462 58.8123566 134.820101 52.9912385 145.662037 51.555031 160.553269 56.5401339 162.481081 60.8421914 162.481081 64.4612034 160.553269z"/>
        <path fill="#FFF" d="M0.942544178,162.744024 C3.45599532,150.404295 4.71272089,140.558654 4.71272089,133.2071 C4.71272089,125.855546 3.45599532,117.800593 0.942544178,109.042242 C-0.314181393,103.789237 -0.314181393,98.3634362 0.942544178,92.7648386 C2.82763253,84.3669421 15.2646103,50.5364182 67.426764,53.4364929 C67.8485874,51.3241631 63.7099401,67.6557724 69.2170928,78.2146671 C70.7740246,67.7533928 87.0080699,80.4204341 92.0380177,66.9992184 C93.2641471,63.7275846 90.1347072,59.8214212 82.4698319,58.8177209 C74.8049565,57.8140206 72.0081281,54.2843069 72.0081281,47.2449361 C72.0081281,36.9005792 87.3654957,28.2702729 96.4720834,28.2702729 C116.330139,28.2702729 113.195344,36.9005792 124.646748,36.9005792 C136.098151,36.9005792 138.672357,27.2798027 137.385254,24.1620728 C136.098151,21.0443429 134.338687,16.0476969 124.646748,16.0476969 C114.954808,16.0476969 114.004276,4.15479357 119.325512,1.34967172 C124.646748,-1.45545012 129.579203,0.434945438 132.346565,4.05843962 C127.828809,4.85968684 125.047921,6.60551392 124.0039,9.29592085 C129.375756,4.95005167 135.774937,5.43252338 143.201444,10.743336 C149.523342,15.2642249 156.096353,22.7878407 156.096353,36.9005792 C156.096353,53.8494308 145.062245,62.6830594 122.994028,63.401465 C117.758966,71.1345309 118.848738,78.6117024 126.263344,85.8329795 C125.181807,91.8969093 123.245309,84.5877768 111.958509,84.3669421 C100.67171,84.1461074 97.4353431,100.094248 97.4353431,112.123959 C97.4353431,124.15367 85.9042884,134.637839 82.4698319,134.637839 C80.8340643,139.40708 82.5416937,149.844105 87.59272,165.948913 C85.9768917,167.555207 82.211942,168.358355 76.2978708,168.358355 C70.3837996,168.358355 66.5209169,167.555207 64.7092228,165.948913 C67.9697225,155.011119 68.5478426,145.490727 66.4435832,137.387737 C65.1801374,132.522514 62.7993711,127.273504 59.3012843,121.640706 C52.2180367,124.625838 43.5187744,125.686089 33.2034974,124.821461 C16.6946314,130.189302 17.6554919,152.852479 23.8238078,162.744024 C15.6246596,166.486911 7.99757167,166.486911 0.942544178,162.744024 Z"/>
      </g>
    </g>
  </g>
</svg>
