<svg xmlns="http://www.w3.org/2000/svg" xmlns:xlink="http://www.w3.org/1999/xlink" width="520" height="100" viewBox="0 0 520 100">
  <defs>
    <linearGradient id="supported-browsers-b" x1="100%" x2="0%" y1="41.909%" y2="41.909%">
      <stop offset="0%" stop-color="#44BD32"/>
      <stop offset="100%" stop-color="#4CD137"/>
    </linearGradient>
    <rect id="supported-browsers-a" width="520" height="100" x="0" y="0" rx="25"/>
    <circle id="supported-browsers-d" cx="39.64" cy="39.64" r="39.64"/>
    <linearGradient id="supported-browsers-f" x1="4.506%" x2="36.914%" y1="55.35%" y2="42.757%">
      <stop offset="0%" stop-color="#A52714" stop-opacity=".6"/>
      <stop offset="70%" stop-color="#A52714" stop-opacity="0"/>
    </linearGradient>
    <linearGradient id="supported-browsers-g" x1="70.032%" x2="41.842%" y1="87.774%" y2="66.332%">
      <stop offset="0%" stop-color="#055524" stop-opacity=".4"/>
      <stop offset="30%" stop-color="#055524" stop-opacity="0"/>
    </linearGradient>
    <polygon id="supported-browsers-h" points="0 72.072 37.748 72.072 55.315 54.505 55.315 41.441 23.964 41.441 0 .225"/>
    <linearGradient id="supported-browsers-j" x1="40.959%" x2="49.214%" y1="-4.844%" y2="45.391%">
      <stop offset="0%" stop-color="#EA6100" stop-opacity=".3"/>
      <stop offset="70%" stop-color="#EA6100" stop-opacity="0"/>
    </linearGradient>
    <polygon id="supported-browsers-k" points="1.802 0 17.387 27.027 0 57.658 41.441 57.658 41.441 0"/>
    <radialGradient id="supported-browsers-m" cx="-4.847%" cy="0%" r="400.476%" fx="-4.847%" fy="0%" gradientTransform="matrix(.26786 0 0 1 -.035 0)">
      <stop offset="0%" stop-color="#3E2723" stop-opacity=".2"/>
      <stop offset="100%" stop-color="#3E2723" stop-opacity="0"/>
    </radialGradient>
    <polygon id="supported-browsers-n" points="0 0 0 18.153 17.748 48.649 33.333 21.622 72.973 21.622 72.973 0"/>
    <radialGradient id="supported-browsers-p" cx="-.175%" cy="0%" r="136.364%" fx="-.175%" fy="0%" gradientTransform="scale(1 .8474)">
      <stop offset="0%" stop-color="#3E2723" stop-opacity=".2"/>
      <stop offset="100%" stop-color="#3E2723" stop-opacity="0"/>
    </radialGradient>
    <radialGradient id="supported-browsers-q" cx="10.309%" cy="-12.261%" r="226.546%" fx="10.309%" fy="-12.261%" gradientTransform="matrix(1 0 0 .49553 0 -.062)">
      <stop offset="0%" stop-color="#263238" stop-opacity=".2"/>
      <stop offset="100%" stop-color="#263238" stop-opacity="0"/>
    </radialGradient>
    <radialGradient id="supported-browsers-r" cx="14.943%" cy="13.636%" r="100.455%" fx="14.943%" fy="13.636%">
      <stop offset="0%" stop-color="#FFF" stop-opacity=".1"/>
      <stop offset="100%" stop-color="#FFF" stop-opacity="0"/>
    </radialGradient>
    <radialGradient id="supported-browsers-s" cx="101.944%" cy="41.384%" r="183.5%" fx="101.944%" fy="41.384%" gradientTransform="matrix(.99922 .01431 -.03944 .3626 .017 .25)">
      <stop offset="10%" stop-color="#FFEA00"/>
      <stop offset="17%" stop-color="#FFDE00"/>
      <stop offset="28%" stop-color="#FFBF00"/>
      <stop offset="43%" stop-color="#FF8E00"/>
      <stop offset="77%" stop-color="#FF272D"/>
      <stop offset="87%" stop-color="#E0255A"/>
      <stop offset="95%" stop-color="#CC2477"/>
      <stop offset="100%" stop-color="#C42482"/>
    </radialGradient>
    <radialGradient id="supported-browsers-t" cx="66.557%" cy="7.93%" r="109.68%" fx="66.557%" fy="7.93%" gradientTransform="scale(1 .99475)">
      <stop offset="0%" stop-color="#00CCDA"/>
      <stop offset="22%" stop-color="#0083FF"/>
      <stop offset="26%" stop-color="#007AF9"/>
      <stop offset="33%" stop-color="#0060E8"/>
      <stop offset="33%" stop-color="#005FE7"/>
      <stop offset="44%" stop-color="#2639AD"/>
      <stop offset="52%" stop-color="#401E84"/>
      <stop offset="57%" stop-color="#4A1475"/>
    </radialGradient>
    <linearGradient id="supported-browsers-u" x1="56.518%" x2="36.808%" y1="75.221%" y2="6.804%">
      <stop offset="0%" stop-color="#000F43" stop-opacity=".4"/>
      <stop offset="48%" stop-color="#001962" stop-opacity=".17"/>
      <stop offset="100%" stop-color="#002079" stop-opacity="0"/>
    </linearGradient>
    <radialGradient id="supported-browsers-v" cx="134.389%" cy="-12.024%" r="171.915%" fx="134.389%" fy="-12.024%" gradientTransform="scale(.92335 1) rotate(5.618 1.4 1.017)">
      <stop offset="0%" stop-color="#FFEA00"/>
      <stop offset="50%" stop-color="#FF272D"/>
      <stop offset="100%" stop-color="#C42482"/>
    </radialGradient>
    <radialGradient id="supported-browsers-w" cx="112.451%" cy="-43.948%" r="454.285%" fx="112.451%" fy="-43.948%" gradientTransform="matrix(.9952 .053 -.0979 .53871 -.038 -.262)">
      <stop offset="0%" stop-color="#FFE900"/>
      <stop offset="16%" stop-color="#FFAF0E"/>
      <stop offset="32%" stop-color="#FF7A1B"/>
      <stop offset="47%" stop-color="#FF4E26"/>
      <stop offset="62%" stop-color="#FF2C2E"/>
      <stop offset="76%" stop-color="#FF1434"/>
      <stop offset="89%" stop-color="#FF0538"/>
      <stop offset="100%" stop-color="#FF0039"/>
    </radialGradient>
    <radialGradient id="supported-browsers-x" cx="201.034%" cy="16.071%" r="377.762%" fx="201.034%" fy="16.071%" gradientTransform="matrix(.53087 .09789 -.05222 .9952 .951 -.196)">
      <stop offset="0%" stop-color="#FF272D"/>
      <stop offset="50%" stop-color="#C42482"/>
      <stop offset="99%" stop-color="#620700"/>
    </radialGradient>
    <radialGradient id="supported-browsers-y" cx="76.845%" cy="39.179%" r="84.043%" fx="76.845%" fy="39.179%" gradientTransform="matrix(1 0 0 .95948 0 .016)">
      <stop offset="16%" stop-color="#FFEA00"/>
      <stop offset="23%" stop-color="#FFDE00"/>
      <stop offset="37%" stop-color="#FFBF00"/>
      <stop offset="54%" stop-color="#FF8E00"/>
      <stop offset="76%" stop-color="#FF272D"/>
      <stop offset="80%" stop-color="#F92433"/>
      <stop offset="84%" stop-color="#E91C45"/>
      <stop offset="89%" stop-color="#CF0E62"/>
      <stop offset="94%" stop-color="#B5007F"/>
    </radialGradient>
    <radialGradient id="supported-browsers-z" cx="28.74%" cy="3.356%" r="241.106%" fx="28.74%" fy="3.356%" gradientTransform="matrix(1 0 0 .3965 0 .02)">
      <stop offset="28%" stop-color="#FFEA00"/>
      <stop offset="40%" stop-color="#FD0"/>
      <stop offset="63%" stop-color="#FFBA00"/>
      <stop offset="86%" stop-color="#FF9100"/>
      <stop offset="93%" stop-color="#FF6711"/>
      <stop offset="99%" stop-color="#FF4A1D"/>
    </radialGradient>
    <linearGradient id="supported-browsers-A" x1="-98.575%" x2="120.989%" y1="77.694%" y2="39.457%">
      <stop offset="0%" stop-color="#C42482" stop-opacity=".5"/>
      <stop offset="47%" stop-color="#FF272D" stop-opacity=".5"/>
      <stop offset="49%" stop-color="#FF2C2C" stop-opacity=".51"/>
      <stop offset="68%" stop-color="#FF7A1A" stop-opacity=".72"/>
      <stop offset="83%" stop-color="#FFB20D" stop-opacity=".87"/>
      <stop offset="94%" stop-color="#FFD605" stop-opacity=".96"/>
      <stop offset="100%" stop-color="#FFE302"/>
    </linearGradient>
    <linearGradient id="supported-browsers-B" x1="52.517%" x2="35.824%" y1="98.256%" y2="9.186%">
      <stop offset="0%" stop-color="#891551" stop-opacity=".6"/>
      <stop offset="100%" stop-color="#C42482" stop-opacity="0"/>
    </linearGradient>
    <linearGradient id="supported-browsers-C" x1="27.017%" x2="48.749%" y1="5.409%" y2="46.416%">
      <stop offset="1%" stop-color="#891551" stop-opacity=".5"/>
      <stop offset="48%" stop-color="#FF272D" stop-opacity=".5"/>
      <stop offset="100%" stop-color="#FF272D" stop-opacity="0"/>
    </linearGradient>
    <linearGradient id="supported-browsers-D" x1="47.217%" x2="49.719%" y1="55.843%" y2="47.317%">
      <stop offset="0%" stop-color="#C42482"/>
      <stop offset="8%" stop-color="#C42482" stop-opacity=".81"/>
      <stop offset="21%" stop-color="#C42482" stop-opacity=".57"/>
      <stop offset="33%" stop-color="#C42482" stop-opacity=".36"/>
      <stop offset="45%" stop-color="#C42482" stop-opacity=".2"/>
      <stop offset="56%" stop-color="#C42482" stop-opacity=".09"/>
      <stop offset="67%" stop-color="#C42482" stop-opacity=".02"/>
      <stop offset="77%" stop-color="#C42482" stop-opacity="0"/>
    </linearGradient>
    <linearGradient id="supported-browsers-E" x1="40.899%" x2="58.827%" y1="1.647%" y2="89.46%">
      <stop offset="0%" stop-color="#FFF14F"/>
      <stop offset="27%" stop-color="#FFEE4C"/>
      <stop offset="45%" stop-color="#FFE643"/>
      <stop offset="61%" stop-color="#FFD834"/>
      <stop offset="76%" stop-color="#FFC41E"/>
      <stop offset="89%" stop-color="#FFAB02"/>
      <stop offset="90%" stop-color="#FFA900"/>
      <stop offset="95%" stop-color="#FFA000"/>
      <stop offset="100%" stop-color="#FF9100"/>
    </linearGradient>
    <linearGradient id="supported-browsers-F" x1="70.041%" x2="43.327%" y1="7.159%" y2="81.948%">
      <stop offset="0%" stop-color="#FF8E00"/>
      <stop offset="4%" stop-color="#FF8E00" stop-opacity=".86"/>
      <stop offset="8%" stop-color="#FF8E00" stop-opacity=".73"/>
      <stop offset="13%" stop-color="#FF8E00" stop-opacity=".63"/>
      <stop offset="18%" stop-color="#FF8E00" stop-opacity=".56"/>
      <stop offset="23%" stop-color="#FF8E00" stop-opacity=".51"/>
      <stop offset="28%" stop-color="#FF8E00" stop-opacity=".5"/>
      <stop offset="39%" stop-color="#FF8E00" stop-opacity=".48"/>
      <stop offset="52%" stop-color="#FF8E00" stop-opacity=".42"/>
      <stop offset="68%" stop-color="#FF8E00" stop-opacity=".31"/>
      <stop offset="84%" stop-color="#FF8E00" stop-opacity=".17"/>
      <stop offset="100%" stop-color="#FF8E00" stop-opacity="0"/>
    </linearGradient>
    <linearGradient id="supported-browsers-G" x1="50%" x2="50%" y1="100%" y2="0%">
      <stop offset="25%" stop-color="#DBDBDA"/>
      <stop offset="100%" stop-color="#FFF"/>
    </linearGradient>
    <radialGradient id="supported-browsers-H" cx="57.025%" cy="39.017%" r="61.032%" fx="57.025%" fy="39.017%">
      <stop offset="0%" stop-color="#2ABCE1"/>
      <stop offset="11.363%" stop-color="#2ABBE1"/>
      <stop offset="100%" stop-color="#3375F8"/>
    </radialGradient>
    <linearGradient id="supported-browsers-I" x1="49.05%" x2="25.713%" y1="35.703%" y2="77.572%">
      <stop offset="0%" stop-opacity="0"/>
      <stop offset="100%"/>
    </linearGradient>
  </defs>
  <g fill="none" fill-rule="evenodd">
    <mask id="supported-browsers-c" fill="#fff">
      <use xlink:href="#supported-browsers-a"/>
    </mask>
    <use fill="url(#supported-browsers-b)" fill-rule="nonzero" xlink:href="#supported-browsers-a"/>
    <g mask="url(#supported-browsers-c)">
      <g transform="translate(20 10)">
        <g transform="translate(.36 .36)">
          <mask id="supported-browsers-e" fill="#fff">
            <use xlink:href="#supported-browsers-d"/>
          </mask>
          <g mask="url(#supported-browsers-e)">
            <polygon fill="#DB4437" fill-rule="nonzero" points="6.306 0 6.306 48.649 24.054 48.649 39.64 21.622 79.279 21.622 79.279 0"/>
            <polygon fill="url(#supported-browsers-f)" fill-rule="nonzero" points="6.306 0 6.306 48.649 24.054 48.649 39.64 21.622 79.279 21.622 79.279 0"/>
            <polygon fill="#3E2723" fill-opacity=".1" fill-rule="nonzero" points="24.459 48.514 6.532 17.748 6.261 18.198 23.829 48.739"/>
            <polygon fill="#0F9D58" fill-rule="nonzero" points="0 79.279 37.748 79.279 55.315 61.712 55.315 48.649 23.964 48.649 0 7.432"/>
            <polygon fill="url(#supported-browsers-g)" fill-rule="nonzero" points="0 79.279 37.748 79.279 55.315 61.712 55.315 48.649 23.964 48.649 0 7.432"/>
            <polygon fill="#263238" fill-opacity=".1" fill-rule="nonzero" points="54.865 49.234 54.505 49.054 37.252 79.234 37.703 79.234 54.955 49.054"/>
            <g transform="translate(0 7.207)">
              <mask id="supported-browsers-i" fill="#fff">
                <use xlink:href="#supported-browsers-h"/>
              </mask>
              <g fill-rule="nonzero" mask="url(#supported-browsers-i)">
                <g transform="translate(37.838 14.414)">
                  <polygon fill="#FFCD40" points="1.802 0 17.387 27.027 0 57.658 41.441 57.658 41.441 0"/>
                  <polygon fill="url(#supported-browsers-j)" points="1.802 0 17.387 27.027 0 57.658 41.441 57.658 41.441 0"/>
                </g>
              </g>
            </g>
            <polygon fill="#FFCD40" fill-rule="nonzero" points="39.64 21.622 55.225 48.649 37.838 79.279 79.279 79.279 79.279 21.622"/>
            <polygon fill="url(#supported-browsers-j)" fill-rule="nonzero" points="39.64 21.622 55.225 48.649 37.838 79.279 79.279 79.279 79.279 21.622"/>
            <g transform="translate(37.838 21.622)">
              <mask id="supported-browsers-l" fill="#fff">
                <use xlink:href="#supported-browsers-k"/>
              </mask>
              <g fill-rule="nonzero" mask="url(#supported-browsers-l)">
                <g transform="translate(-31.532 -21.622)">
                  <polygon fill="#DB4437" points="0 0 0 48.649 17.748 48.649 33.333 21.622 72.973 21.622 72.973 0"/>
                  <polygon fill="url(#supported-browsers-f)" points="0 0 0 48.649 17.748 48.649 33.333 21.622 72.973 21.622 72.973 0"/>
                </g>
              </g>
            </g>
            <polygon fill="url(#supported-browsers-m)" fill-rule="nonzero" points="39.64 21.622 39.64 31.081 74.955 21.622"/>
            <g transform="translate(6.306)">
              <mask id="supported-browsers-o" fill="#fff">
                <use xlink:href="#supported-browsers-n"/>
              </mask>
              <g fill-rule="nonzero" mask="url(#supported-browsers-o)">
                <g transform="translate(-6.306 7.207)">
                  <polygon fill="#0F9D58" points="0 72.072 37.748 72.072 55.315 54.505 55.315 41.441 23.964 41.441 0 .225"/>
                  <polygon fill="url(#supported-browsers-g)" points="0 72.072 37.748 72.072 55.315 54.505 55.315 41.441 23.964 41.441 0 .225"/>
                </g>
              </g>
            </g>
            <polygon fill="url(#supported-browsers-p)" fill-rule="nonzero" points="6.306 18.243 32.072 44.009 24.054 48.649"/>
            <polygon fill="url(#supported-browsers-q)" fill-rule="nonzero" points="37.748 79.279 47.207 44.009 55.225 48.649"/>
            <circle cx="39.64" cy="39.64" r="18.018" fill="#F1F1F1" fill-rule="nonzero"/>
            <circle cx="39.64" cy="39.64" r="14.414" fill="#4285F4" fill-rule="nonzero"/>
            <path fill="#3E2723" fill-opacity=".2" fill-rule="nonzero" d="M39.6396396,21.1711712 C29.7297297,21.1711712 21.6216216,29.2792793 21.6216216,39.1891892 L21.6216216,39.6396396 C21.6216216,29.7297297 29.7297297,21.6216216 39.6396396,21.6216216 L79.2792793,21.6216216 L79.2792793,21.1711712 L39.6396396,21.1711712 Z"/>
            <path fill="#FFF" fill-opacity=".1" fill-rule="nonzero" d="M55.2252252,48.6486486 C52.001822,54.2054445 46.0636811,57.6257322 39.6396396,57.6257322 C33.2155981,57.6257322 27.2774573,54.2054445 24.0540541,48.6486486 L0,7.43243243 L0,7.88288288 L24.0540541,49.0990991 C27.2774573,54.655895 33.2155981,58.0761827 39.6396396,58.0761827 C46.0636811,58.0761827 52.001822,54.655895 55.2252252,49.0990991 L55.2252252,48.6486486 Z"/>
            <path fill="#3E2723" fill-opacity=".1" fill-rule="nonzero" d="M40.0900901,21.6216216 L39.8648649,21.6216216 C49.8159414,21.6216216 57.8828829,29.6885631 57.8828829,39.6396396 C57.8828829,49.5907162 49.8159414,57.6576577 39.8648649,57.6576577 L40.0900901,57.6576577 C50,57.6576577 58.1081081,49.5495495 58.1081081,39.6396396 C58.1081081,29.7297297 50,21.6216216 40.0900901,21.6216216 Z"/>
            <path fill="#FFF" fill-opacity=".2" fill-rule="nonzero" d="M55.4054054,49.2342342 C57.9498468,44.8682486 58.5071557,39.6229881 56.9369369,34.8198198 C58.3533388,39.4635854 57.7311297,44.4903802 55.2252252,48.6486486 L37.8378378,79.2792793 L38.2882883,79.2792793 L55.4954955,49.3243243 L55.4054054,49.2342342 Z"/>
            <path fill="#FFF" fill-opacity=".2" fill-rule="nonzero" d="M39.6396396,0.45045045 C61.444353,0.450098486 79.1553889,18.0605035 79.2792793,39.8648649 L79.2792793,39.6396396 C79.2792793,17.7472712 61.5320081,-5.90518625e-15 39.6396396,-7.10542736e-15 C17.7472712,-8.30566847e-15 -4.30486477e-15,17.7472712 -7.10542736e-15,39.6396396 L-7.10542736e-15,39.8648649 C0.123890414,18.0605035 17.8349263,0.450098486 39.6396396,0.45045045 Z"/>
            <path fill="#3E2723" fill-opacity=".1" fill-rule="nonzero" d="M39.6396396,78.8288288 C61.444353,78.8291808 79.1553889,61.2187758 79.2792793,39.4144144 L79.2792793,39.6396396 C79.2792793,61.5320081 61.5320081,79.2792793 39.6396396,79.2792793 C17.7472712,79.2792793 -4.30486477e-15,61.5320081 -7.10542736e-15,39.6396396 L-7.10542736e-15,39.4144144 C0.123890414,61.2187758 17.8349263,78.8291808 39.6396396,78.8288288 Z"/>
          </g>
        </g>
        <circle cx="40" cy="40" r="39.64" fill="url(#supported-browsers-r)" fill-rule="nonzero"/>
      </g>
    </g>
    <g fill-rule="nonzero" mask="url(#supported-browsers-c)">
      <g transform="translate(120 10)">
        <path fill="url(#supported-browsers-s)" d="M63.6243902,7.44390244 C61.6772358,9.71056911 60.7707317,14.8130081 62.7447154,19.9853659 C64.7186992,25.1577236 67.7447154,24.0341463 69.6308943,29.3081301 C72.1203252,36.2674797 70.9617886,45.6162602 70.9617886,45.6162602 C70.9617886,45.6162602 73.9544715,54.2837398 76.0406504,45.0772358 C80.6577236,27.7837398 63.6243902,11.702439 63.6243902,7.44390244 Z"/>
        <path fill="url(#supported-browsers-t)" d="M39.8674797,79.2390244 C59.8056911,79.2390244 75.9569106,63 75.9569106,42.9788618 C75.9569106,22.9577236 59.8056911,6.71869919 39.8869919,6.71869919 C19.9682927,6.71869919 3.81707317,22.9528455 3.81707317,42.9764228 C3.77886179,63.0195122 19.9487805,79.2390244 39.8674797,79.2390244 Z"/>
        <path fill="url(#supported-browsers-u)" d="M66.9081301,65.3365854 C66.1280563,65.8868732 65.309719,66.3808098 64.4593496,66.8146341 C65.5860408,65.162877 66.6254061,63.453216 67.5731707,61.6926829 C68.3422764,60.8414634 69.0471545,60.0138211 69.6211382,59.1195122 C69.900813,58.6796748 70.2154472,58.1373984 70.5495935,57.5081301 C72.5756098,53.8577236 74.8097561,47.9504065 74.8731707,41.8821138 L74.8731707,41.8699187 C74.8731707,41.7203252 74.8731707,41.5715447 74.8731707,41.4219512 C74.8837216,39.8987245 74.7280581,38.3788927 74.4089431,36.8894309 C74.4252033,37.0056911 74.4398374,37.1219512 74.4544715,37.2382114 C74.4365854,37.1487805 74.4211382,37.0585366 74.402439,36.9691057 C74.4325203,37.1317073 74.4560976,37.2943089 74.4837398,37.4569106 C74.897561,40.9707317 74.603252,44.397561 73.1276423,46.9243902 C73.104065,46.9609756 73.0804878,46.995935 73.0569106,47.0317073 C73.8219512,43.1918699 74.0780488,38.9512195 73.2268293,34.7065041 C73.2268293,34.7065041 72.8861789,32.6430894 70.3504065,26.3780488 C68.8869919,22.7723577 66.299187,19.8154472 64.0089431,17.6617886 C62.001626,15.1780488 60.1788618,13.5154472 59.1739837,12.4536585 C57.0747967,10.2430894 56.195122,8.58617886 55.8333333,7.50487805 C55.5203252,7.34796748 51.5130081,3.45528455 51.195122,3.30731707 C49.4463415,6.01869919 43.9463415,14.5 46.5609756,22.4252033 C47.7463415,26.0162602 50.7455285,29.7422764 53.8837398,31.8349593 C54.0211382,31.9926829 55.7536585,33.8674797 56.5739837,38.1081301 C57.4235772,42.4861789 56.9804878,45.901626 55.2292683,50.9536585 C53.1731707,55.3853659 47.9065041,59.7658537 42.9756098,60.2138211 C32.4333333,61.1715447 28.5731707,54.9203252 28.5731707,54.9203252 C32.3406504,56.4260163 36.5056911,56.1113821 39.0382114,54.5495935 C41.5910569,52.9699187 43.1349593,51.799187 44.3886179,52.2609756 C45.6227642,52.7178862 46.6097561,51.3821138 45.7235772,50 C44.3299241,47.853644 41.7889382,46.7473231 39.2682927,47.1894309 C36.7130081,47.604878 34.3715447,49.6284553 31.0235772,47.6682927 C30.8068335,47.5425879 30.5970425,47.4052602 30.395122,47.2569106 C30.1747967,47.1113821 31.1130081,47.4780488 30.8934959,47.3130081 C30.2430894,46.9593496 29.0886179,46.1878049 28.7894309,45.9130081 C28.7398374,45.8674797 29.295122,46.0902439 29.2455285,46.0447154 C26.1146341,43.4666667 26.5056911,41.7252033 26.604065,40.6325203 C26.6853659,39.7585366 27.2544715,38.6390244 28.2097561,38.1845528 C28.6723577,38.4373984 28.9609756,38.6300813 28.9609756,38.6300813 C28.9609756,38.6300813 28.7634146,38.2235772 28.6569106,38.0138211 C28.6943089,37.997561 28.7300813,38.001626 28.7674797,37.9861789 C29.1463415,38.1691057 29.9869919,38.6447154 30.4268293,38.9349593 C31.001626,39.3414634 31.1853659,39.702439 31.1853659,39.702439 C31.1853659,39.702439 31.3365854,39.6211382 31.2243902,39.2658537 C31.1837398,39.1211382 31.0089431,38.6601626 30.4398374,38.195122 L30.4756098,38.195122 C30.8165592,38.3893057 31.1395178,38.6134994 31.4406504,38.8650407 C31.603252,38.2813008 31.8902439,37.6715447 31.8268293,36.5813008 C31.7878049,35.8146341 31.8056911,35.6162602 31.6707317,35.3203252 C31.5495935,35.0658537 31.7382114,34.9666667 31.9487805,35.2308943 C31.9127675,35.0239817 31.8524587,34.8220428 31.7691057,34.6292683 L31.7691057,34.6097561 C32.0317073,33.695935 37.3178862,31.3203252 37.704065,31.0422764 C38.3362326,30.5949029 38.8663246,30.0185352 39.2593496,29.3512195 C39.5536585,28.8829268 39.7747967,28.2252033 39.8284553,27.2284553 C39.8577236,26.5097561 39.5227642,26.0308943 34.1772358,25.4707317 C32.7138211,25.3268293 31.8577236,24.2674797 31.3699187,23.2902439 C31.2813008,23.0796748 31.1902439,22.8886179 31.099187,22.698374 C31.0125345,22.4755258 30.9429571,22.2464098 30.8910569,22.0130081 C31.7650407,19.503252 33.2333333,17.3788618 35.3926829,15.7772358 C35.5105691,15.6699187 34.9227642,15.804878 35.0398374,15.695935 C35.1772358,15.5707317 36.0731707,15.2081301 36.2422764,15.1268293 C36.4487805,15.0292683 35.3577236,14.5658537 34.3943089,14.6788618 C33.4130081,14.7894309 33.204878,14.9065041 32.6813008,15.1284553 C32.898374,14.9121951 33.5894309,14.6284553 33.4276423,14.6300813 C32.3707317,14.7926829 31.0552846,15.4073171 29.9317073,16.103252 C29.9293642,15.9819561 29.9523469,15.861505 29.999187,15.7495935 C29.4756098,15.9715447 28.1894309,16.8707317 27.8146341,17.6308943 C27.830877,17.4851358 27.8382078,17.3385217 27.8365854,17.1918699 C27.4377991,17.5246441 27.0780469,17.9015793 26.7642276,18.3154472 L26.7447154,18.3333333 C23.7073171,17.1138211 21.0349593,17.0325203 18.7731707,17.5788618 C18.2780488,17.0821138 18.0365854,17.4455285 16.9105691,14.9715447 C16.8341463,14.8227642 16.9691057,15.1186992 16.9105691,14.9715447 C16.7252033,14.4918699 17.0235772,15.6113821 16.9105691,14.9715447 C15.0178862,16.4650407 12.5268293,18.1577236 11.3308943,19.3528455 C11.3162602,19.400813 12.7260163,18.9544715 11.3308943,19.3528455 C10.8430894,19.4926829 10.8756098,19.7821138 10.801626,22.401626 C10.7837398,22.6 10.801626,22.8227642 10.7837398,23.001626 C9.82845528,24.2211382 9.17804878,25.2487805 8.93170732,25.7829268 C7.69674797,27.9113821 6.33577236,31.2300813 5.01707317,36.4780488 C5.59922132,35.0576061 6.30064478,33.689028 7.11382114,32.3869919 C6.01707317,35.1731707 4.95691057,39.5479675 4.74552846,46.2845528 C5.01071828,44.894319 5.35077966,43.519418 5.76422764,42.1658537 C5.50488032,47.7554364 6.46849149,53.3342817 8.58780488,58.5130081 C9.34634146,60.3682927 10.600813,63.1845528 12.7341463,66.2691057 C19.4471545,73.3333333 28.9113821,77.7235772 39.3910569,77.7235772 C50.3325203,77.7235772 60.1577236,72.9373984 66.9081301,65.3365854 Z"/>
        <path fill="url(#supported-browsers-v)" d="M58.8130081,70.4642276 C72.0544715,68.9308943 77.9186992,55.2853659 70.3886179,55.0170732 C63.5894309,54.796748 52.5447154,71.1878049 58.8130081,70.4642276 Z"/>
        <path fill="url(#supported-browsers-w)" d="M71.3422764,52.2292683 C80.4520325,46.9276423 78.0731707,35.4747967 78.0731707,35.4747967 C78.0731707,35.4747967 74.5569106,39.5593496 72.1691057,46.0699187 C69.8130081,52.5203252 65.8650407,55.4317073 71.3422764,52.2292683 Z"/>
        <path fill="url(#supported-browsers-x)" d="M42.4203252,77.2406504 C55.1219512,81.2934959 66.0406504,71.2878049 59.3097561,67.9463415 C53.195122,64.9333333 36.3918699,75.3243902 42.4203252,77.2406504 Z"/>
        <path fill="url(#supported-browsers-y)" d="M72.2886179,57.0918699 C72.597561,56.6560976 73.0154472,55.2601626 73.3845528,54.6357724 C75.6268293,51.0162602 75.6430894,48.1317073 75.6430894,48.0634146 C76.997561,41.297561 76.8747967,38.5349593 76.0414634,33.4292683 C75.3707317,29.3154472 72.4382114,23.4219512 69.897561,20.5837398 C67.2796748,17.6569106 69.1243902,18.6121951 66.5894309,16.4764228 C64.3674797,14.0138211 62.2138211,11.5747967 61.0406504,10.5934959 C52.5626016,3.50325203 52.7536585,1.99837398 52.9170732,1.74146341 C52.8894309,1.77154472 52.8487805,1.81626016 52.797561,1.87479675 C52.696748,1.47479675 52.6260163,1.13821138 52.6260163,1.13821138 C52.6260163,1.13821138 47.9918699,5.77235772 47.0162602,13.495935 C46.3796748,18.5365854 48.2666667,23.795122 51,27.1544715 C52.4231855,28.8955843 54.0315634,30.4767016 55.796748,31.8699187 L55.796748,31.8699187 C57.8617886,34.8357724 58.998374,38.495122 58.998374,42.4317073 C58.998374,52.2886179 51.003252,60.2796748 41.1406504,60.2796748 C39.7965985,60.2803238 38.4567387,60.1297839 37.1463415,59.8308943 C32.4926829,58.9430894 29.804878,56.595122 28.4650407,55.000813 C27.696748,54.0878049 27.3707317,53.4219512 27.3707317,53.4219512 C31.5398374,54.9154472 36.1512195,54.603252 38.9536585,53.0544715 C41.7788618,51.4886179 43.4878049,50.3268293 44.8756098,50.7845528 C46.2430894,51.2406504 47.3317073,49.9170732 46.3552846,48.5455285 C45.398374,47.1756098 42.9081301,45.2121951 39.2105691,45.7577236 C36.3821138,46.1699187 33.7910569,48.1772358 30.0853659,46.2325203 C29.8468397,46.1090311 29.6148257,45.9733504 29.3902439,45.8260163 C29.1463415,45.6821138 30.1845528,46.0447154 29.9422764,45.8813008 C29.2211382,45.5300813 27.9447154,44.7650407 27.6138211,44.4934959 C27.5585366,44.4479675 28.1731707,44.6691057 28.1178862,44.6235772 C24.6528455,42.0666667 25.0853659,40.3398374 25.1910569,39.2577236 C25.2780488,38.3910569 25.9073171,37.2804878 26.9682927,36.8300813 C27.4804878,37.0804878 27.8,37.2715447 27.8,37.2715447 C27.8,37.2715447 27.5813008,36.8715447 27.4634146,36.6609756 C27.504878,36.6455285 27.5447154,36.6487805 27.5853659,36.6333333 C28.004878,36.8146341 28.9333333,37.2837398 29.4219512,37.5739837 C30.0585366,37.9764228 30.2609756,38.3349593 30.2609756,38.3349593 C30.2609756,38.3349593 30.4284553,38.2536585 30.304878,37.901626 C30.2593496,37.7577236 30.0666667,37.300813 29.4365854,36.8390244 L29.4756098,36.8390244 C29.8496678,37.029692 30.2067878,37.2519061 30.5430894,37.503252 C30.7211382,36.9243902 31.0406504,36.3195122 30.9699187,35.2382114 C30.9268293,34.4780488 30.9471545,34.2804878 30.797561,33.9869919 C30.6634146,33.7349593 30.8723577,33.6365854 31.104878,33.898374 C31.0647812,33.6917312 30.9981025,33.4911484 30.9065041,33.301626 L30.9065041,33.2821138 C31.196748,32.3764228 37.0471545,30.0203252 37.4731707,29.7447154 C38.1592526,29.3139152 38.7459289,28.7422037 39.1943089,28.0674797 C39.5195122,27.602439 39.7634146,26.9512195 39.8243902,25.9626016 C39.8447154,25.5170732 39.7073171,25.1642276 38.1577236,24.8243902 C37.2276423,24.6219512 35.7886179,24.4252033 33.5699187,24.2170732 C31.9520325,24.0739837 31.002439,23.0235772 30.4634146,22.0544715 C30.3650407,21.8455285 30.2642276,21.6560976 30.1642276,21.4674797 C30.068809,21.2476975 29.9918495,21.0203544 29.9341463,20.7878049 C30.9023468,18.2534093 32.6458976,16.089335 34.9162602,14.604065 C35.0463415,14.497561 34.395935,14.6308943 34.5260163,14.5227642 C34.6780488,14.399187 35.6691057,14.0406504 35.8569106,13.9601626 C36.0853659,13.8634146 34.8813008,13.404065 33.8113821,13.5154472 C32.7252033,13.6252033 32.495122,13.7414634 31.9154472,13.9617886 C32.1593496,13.7471545 32.9211382,13.4658537 32.7414634,13.4674797 C31.5707317,13.6300813 30.1154472,14.2382114 28.8715447,14.9308943 C28.8692029,14.8098948 28.8947984,14.6899852 28.9463415,14.5804878 C28.3666667,14.800813 26.9430894,15.6918699 26.5292683,16.4504065 C26.5469653,16.306121 26.5548425,16.1608002 26.5528455,16.0154472 C26.1164046,16.3407229 25.7182035,16.7143773 25.3658537,17.1292683 L25.3439024,17.1471545 C21.9869919,15.9349593 19.0284553,15.8536585 16.5284553,16.4 C15.9804878,15.9073171 15.1,15.1617886 13.8544715,12.7089431 C13.7731707,12.5609756 13.7243902,13.0138211 13.6593496,12.8715447 C13.1715447,11.7487805 12.8829268,9.90894309 12.9276423,8.64390244 C12.9276423,8.64390244 11.9260163,9.1 11.097561,11.0065041 C10.9439024,11.3487805 10.8447154,11.5382114 10.7463415,11.7276423 C10.700813,11.7829268 10.8495935,11.101626 10.8276423,11.1390244 C10.6837398,11.3829268 10.3105691,11.7235772 10.1471545,12.1650407 C10.0349593,12.4902439 9.87723577,12.6747967 9.77642276,13.0829268 L9.75284553,13.1203252 C9.74471545,13 9.78292683,12.6260163 9.75284553,12.702439 C9.36428273,13.4852022 9.02962886,14.2935869 8.75121951,15.1219512 C8.30487805,16.5853659 7.78536585,18.5861789 7.70325203,21.1845528 C7.68373984,21.3813008 7.70325203,21.602439 7.68292683,21.7796748 C6.62601626,22.9853659 5.90569106,24.0065041 5.63414634,24.5365854 C4.26747967,26.6504065 2.76178862,29.9382114 1.30162602,35.1430894 C1.95101823,33.7209373 2.72761911,32.3603892 3.62195122,31.0780488 C2.40813008,33.8414634 1.23495935,38.1804878 1,44.8617886 C1.29456652,43.4791181 1.67111216,42.1151922 2.12764228,40.7772358 C1.91788618,45.2325203 2.43739837,50.7560976 5.25365854,56.9918699 C6.92601626,60.6504065 10.7756098,68.097561 20.1821138,73.9065041 L20.1821138,73.9065041 C20.1821138,73.9065041 23.3821138,76.2886179 28.8813008,78.0739837 C29.2878049,78.2211382 29.699187,78.3666667 30.1195122,78.5073171 C29.9878049,78.4536585 29.8601626,78.398374 29.7365854,78.3406504 C33.3980335,79.4379663 37.1996097,79.996933 41.0219512,80 C55.2642276,80.0121951 59.4650407,74.2926829 59.4650407,74.2926829 L59.4235772,74.3235772 C59.6246612,74.1344173 59.8181572,73.9376694 60.004065,73.7333333 C57.7569106,75.8536585 52.6260163,75.996748 50.7113821,75.8430894 C53.9813008,74.8829268 56.1333333,74.0699187 60.3186992,72.4674797 C60.8065041,72.2853659 61.3073171,72.0783198 61.8211382,71.8463415 L61.9878049,71.7699187 C62.0894309,71.7227642 62.1902439,71.6780488 62.2926829,71.6284553 C64.3320315,70.6670817 66.249605,69.4662101 68.004878,68.0512195 C72.2081301,64.6934959 73.1227642,61.4203252 73.600813,59.2626016 C73.5341463,59.4691057 73.3268293,59.9512195 73.1804878,60.2642276 C72.098374,62.5796748 69.697561,64.004065 67.0902439,65.2195122 C68.330628,63.5915854 69.4808623,61.8969033 70.5357724,60.1430894 C71.3878049,59.3 71.6504065,57.9796748 72.2886179,57.0918699 Z"/>
        <path fill="url(#supported-browsers-z)" d="M67.1723577,65.1219512 C68.8861789,63.2325203 70.4243902,61.0715447 71.5910569,58.6178862 C74.5910569,52.3105691 79.2333333,41.8227642 75.5747967,30.8691057 C72.6886179,22.2130081 68.7235772,17.4796748 63.6918699,12.8552846 C55.5170732,5.34634146 53.2341463,1.99349593 53.2341463,0 C53.2341463,0 43.795935,10.5211382 47.8894309,21.4943089 C51.9829268,32.4674797 60.3658537,32.0634146 65.9121951,43.5162602 C72.4382114,56.9910569 60.6317073,71.695935 50.8715447,75.8121951 C51.4691057,75.6796748 72.5788618,70.903252 73.6853659,58.8300813 C73.6569106,59.0520325 73.1813008,62.3910569 67.1723577,65.1219512 L67.1723577,65.1219512 Z"/>
        <path fill="url(#supported-browsers-A)" d="M39.8284553,25.9650407 C39.8601626,25.2520325 39.4902439,24.7731707 33.5943089,24.2203252 C31.1682927,23.995935 30.2398374,21.7544715 29.9560976,20.8105691 C29.0934959,23.0512195 28.7365854,25.403252 28.9284553,28.2479675 C29.0593496,30.1113821 30.3105691,32.1113821 30.9097561,33.2886179 C30.9097561,33.2886179 31.0430894,33.1154472 31.104065,33.0520325 C32.2308943,31.8788618 36.9528455,30.0910569 37.395935,29.8373984 C37.8853659,29.5252033 39.7463415,28.1658537 39.8284553,25.9650407 Z"/>
        <path fill="url(#supported-browsers-B)" d="M13.8707317,12.7211382 C13.7894309,12.5731707 13.7406504,13.0260163 13.6756098,12.8837398 C13.1878049,11.7609756 12.896748,9.94065041 12.9666667,8.65609756 C12.9666667,8.65609756 11.9650407,9.11219512 11.1365854,11.0186992 C10.9829268,11.3609756 10.8837398,11.5504065 10.7853659,11.7390244 C10.7398374,11.7943089 10.8886179,11.1130081 10.8666667,11.1504065 C10.7227642,11.3943089 10.3495935,11.7349593 10.1878049,12.1569106 C10.0536585,12.501626 9.91544715,12.6869919 9.81300813,13.1138211 C9.78130081,13.2300813 9.84471545,12.6 9.81707317,12.6764228 C7.88780488,16.396748 7.5195122,22.0325203 7.72276423,21.7886179 C11.8268293,17.4097561 16.5284553,16.3707317 16.5284553,16.3707317 C16.0284553,16.002439 14.9406504,14.9373984 13.8699187,12.7211382 L13.8707317,12.7211382 Z"/>
        <path fill="url(#supported-browsers-C)" d="M29.4422764,58.5447154 C23.7739837,56.1243902 17.3284553,52.7113821 17.5723577,44.9560976 C17.904065,34.7439024 27.097561,36.7626016 27.097561,36.7626016 C26.7504065,36.8439024 25.8227642,37.5073171 25.4943089,38.2113821 C25.1471545,39.0918699 24.5130081,41.0796748 26.4333333,43.1626016 C29.4487805,46.4300813 20.2382114,50.9154472 34.4544715,59.3878049 C34.8130081,59.5829268 31.1211382,59.2715447 29.4430894,58.5455285 L29.4422764,58.5447154 Z"/>
        <path fill="url(#supported-browsers-D)" d="M27.4284553,53.4552846 C31.4479675,54.8544715 36.1276423,54.6089431 38.9341463,53.0601626 C40.8113821,52.0154472 43.2186992,50.3422764 44.7,50.7552846 C43.4170732,50.2479675 42.4455285,50.0113821 41.2772358,49.9536585 C41.0780488,49.9536585 40.8398374,49.9495935 40.6268293,49.9276423 C40.1987367,49.9261665 39.7709186,49.9495119 39.3455285,49.997561 C38.6219512,50.0642276 37.8195122,50.5203252 37.0902439,50.4471545 C37.0512195,50.4471545 37.797561,50.1406504 37.7406504,50.1536585 C37.3544715,50.2349593 36.9341463,50.2520325 36.4910569,50.3065041 C36.2089431,50.3382114 35.9666667,50.3731707 35.6869919,50.3878049 C27.3130081,51.097561 20.2398374,45.8504065 20.2398374,45.8504065 C19.6373984,47.8829268 22.9365854,51.8910569 27.4365854,53.4577236 L27.4284553,53.4552846 Z"/>
        <path fill="url(#supported-browsers-E)" d="M67.1577236,65.1747967 C75.6260163,56.8601626 79.9105691,46.7536585 78.099187,35.4186992 C78.099187,35.4186992 78.8227642,41.2317073 76.0788618,47.1772358 C77.396748,41.3731707 77.5504065,34.1601626 74.0463415,26.6894309 C69.3739837,16.7186992 61.6869919,11.4723577 58.7520325,9.28373984 C54.3056911,5.96747967 52.4634146,2.59105691 52.4284553,1.89430894 C51.1,4.61626016 47.0813008,13.9430894 51.996748,21.9756098 C56.601626,29.500813 63.8552846,31.7317073 68.9341463,38.6382114 C78.2902439,51.3552846 67.1577236,65.1747967 67.1577236,65.1747967 L67.1577236,65.1747967 Z"/>
        <path fill="url(#supported-browsers-F)" d="M65.9439024,43.5406504 C62.9845528,37.4268293 59.2926829,34.7601626 55.796748,31.8699187 C56.203252,32.4390244 56.303252,32.6398374 56.5284553,33.0081301 C59.604065,36.2861789 64.1390244,44.2813008 60.8463415,54.3178862 C54.6487805,73.2097561 29.8617886,64.3138211 27.2601626,61.8146341 C28.3113821,72.7487805 46.6097561,77.9804878 58.5284553,70.8902439 C65.3089431,64.4715447 70.7943089,53.5601626 65.9439024,43.5406504 Z"/>
      </g>
    </g>
    <g mask="url(#supported-browsers-c)">
      <g transform="translate(220 10)">
        <circle cx="40" cy="40" r="40" fill="url(#supported-browsers-G)" fill-rule="nonzero"/>
        <circle cx="40" cy="40" r="37" fill="url(#supported-browsers-H)" fill-rule="nonzero"/>
        <g transform="translate(3.125 2.813)">
          <path fill="#F3F3F3" fill-rule="nonzero" d="M36.9375,9.1875 C36.6875,9.1875 36.46875,9 36.46875,8.75 L36.46875,2.21875 C36.46875,1.96875 36.6875,1.78125 36.9375,1.78125 C37.1875,1.78125 37.40625,1.96875 37.40625,2.21875 L37.40625,8.75 C37.375,9 37.1875,9.1875 36.9375,9.1875 L36.9375,9.1875 Z"/>
          <path fill="#FFF" fill-rule="nonzero" d="M36.9375,9.21875 C36.65625,9.21875 36.4375,9 36.4375,8.75 L36.4375,2.21875 C36.4375,1.96875 36.65625,1.75 36.9375,1.75 C37.21875,1.75 37.4375,1.96875 37.4375,2.21875 L37.4375,8.75 C37.4375,9 37.1875,9.21875 36.9375,9.21875 L36.9375,9.21875 Z M36.9375,1.8125 C36.71875,1.8125 36.5,2 36.5,2.21875 L36.5,8.75 C36.5,8.96875 36.6875,9.15625 36.9375,9.15625 C37.15625,9.15625 37.375,8.96875 37.375,8.75 L37.375,2.21875 C37.34375,2 37.15625,1.8125 36.9375,1.8125 L36.9375,1.8125 Z"/>
          <path fill="#F3F3F3" fill-rule="nonzero" d="M40.0625,5.6875 C39.8125,5.65625 39.625,5.46875 39.625,5.21875 L39.84375,2.3125 C39.875,2.0625 40.09375,1.875 40.34375,1.90625 C40.59375,1.9375 40.78125,2.125 40.78125,2.375 L40.5625,5.28125 C40.53125,5.53125 40.3125,5.71875 40.0625,5.6875 L40.0625,5.6875 Z"/>
          <path fill="#FFF" fill-rule="nonzero" d="M40.0625,5.71875 C39.78125,5.6875 39.59375,5.46875 39.59375,5.21875 L39.8125,2.3125 C39.84375,2.0625 40.0625,1.84375 40.34375,1.875 C40.625,1.90625 40.8125,2.125 40.8125,2.375 L40.59375,5.28125 C40.5625,5.5625 40.34375,5.75 40.0625,5.71875 L40.0625,5.71875 Z M40.34375,1.9375 C40.125,1.9375 39.90625,2.09375 39.90625,2.3125 L39.6875,5.21875 C39.6875,5.4375 39.84375,5.625 40.09375,5.65625 C40.3125,5.65625 40.53125,5.5 40.53125,5.28125 L40.75,2.375 C40.75,2.15625 40.5625,1.96875 40.34375,1.9375 L40.34375,1.9375 Z"/>
          <path fill="#F3F3F3" fill-rule="nonzero" d="M42.40625,9.75 C42.15625,9.6875 42,9.46875 42.03125,9.21875 L43.3125,2.8125 C43.375,2.5625 43.59375,2.40625 43.84375,2.46875 C44.09375,2.53125 44.25,2.75 44.21875,3 L42.9375,9.40625 C42.90625,9.625 42.65625,9.78125 42.40625,9.75 L42.40625,9.75 Z"/>
          <path fill="#FFF" fill-rule="nonzero" d="M42.40625,9.78125 C42.125,9.71875 41.96875,9.46875 42,9.21875 L43.28125,2.8125 C43.34375,2.5625 43.59375,2.375 43.875,2.4375 C44.15625,2.5 44.3125,2.75 44.28125,3 L43,9.40625 C42.9375,9.65625 42.6875,9.8125 42.40625,9.78125 L42.40625,9.78125 Z M43.875,2.5 C43.65625,2.46875 43.4375,2.59375 43.375,2.8125 L42.09375,9.21875 C42.0625,9.4375 42.1875,9.65625 42.4375,9.71875 C42.65625,9.75 42.875,9.625 42.9375,9.40625 L44.21875,3 C44.25,2.75 44.09375,2.5625 43.875,2.5 L43.875,2.5 Z"/>
          <path fill="#F3F3F3" fill-rule="nonzero" d="M46.15625,6.9375 C45.90625,6.875 45.75,6.625 45.8125,6.375 L46.59375,3.5625 C46.65625,3.3125 46.90625,3.1875 47.15625,3.25 C47.40625,3.3125 47.5625,3.5625 47.5,3.8125 L46.71875,6.625 C46.65625,6.875 46.40625,7 46.15625,6.9375 L46.15625,6.9375 Z"/>
          <path fill="#FFF" fill-rule="nonzero" d="M46.15625,6.96875 C45.90625,6.90625 45.71875,6.625 45.8125,6.375 L46.59375,3.5625 C46.65625,3.3125 46.9375,3.15625 47.1875,3.21875 C47.4375,3.28125 47.625,3.5625 47.53125,3.8125 L46.75,6.625 C46.6875,6.875 46.4375,7.03125 46.15625,6.96875 L46.15625,6.96875 Z M47.1875,3.3125 C46.96875,3.25 46.71875,3.375 46.65625,3.59375 L45.875,6.40625 C45.8125,6.625 45.9375,6.84375 46.1875,6.90625 C46.40625,6.96875 46.65625,6.84375 46.71875,6.625 L47.5,3.8125 C47.53125,3.59375 47.40625,3.375 47.1875,3.3125 L47.1875,3.3125 Z"/>
          <path fill="#F3F3F3" fill-rule="nonzero" d="M47.6875,11.34375 C47.4375,11.25 47.34375,10.96875 47.4375,10.75 L49.9375,4.71875 C50.03125,4.5 50.3125,4.375 50.53125,4.5 C50.78125,4.59375 50.875,4.875 50.78125,5.09375 L48.28125,11.125 C48.1875,11.34375 47.90625,11.46875 47.6875,11.34375 L47.6875,11.34375 Z"/>
          <path fill="#FFF" fill-rule="nonzero" d="M47.6875,11.375 C47.4375,11.28125 47.3125,11 47.40625,10.75 L49.90625,4.71875 C50,4.46875 50.28125,4.375 50.5625,4.46875 C50.8125,4.5625 50.9375,4.84375 50.84375,5.09375 L48.34375,11.125 C48.21875,11.375 47.9375,11.5 47.6875,11.375 L47.6875,11.375 Z M50.53125,4.53125 C50.3125,4.4375 50.0625,4.53125 49.96875,4.75 L47.46875,10.78125 C47.375,11 47.5,11.21875 47.71875,11.3125 C47.9375,11.40625 48.1875,11.3125 48.28125,11.09375 L50.78125,5.0625 C50.84375,4.875 50.75,4.625 50.53125,4.53125 L50.53125,4.53125 Z"/>
          <path fill="#F3F3F3" fill-rule="nonzero" d="M51.90625,9.34375 C51.6875,9.21875 51.59375,8.96875 51.6875,8.75 L53,6.15625 C53.125,5.9375 53.375,5.84375 53.625,5.96875 C53.84375,6.09375 53.9375,6.34375 53.84375,6.5625 L52.53125,9.15625 C52.40625,9.375 52.15625,9.46875 51.90625,9.34375 L51.90625,9.34375 Z"/>
          <path fill="#FFF" fill-rule="nonzero" d="M51.90625,9.375 C51.65625,9.25 51.5625,8.96875 51.6875,8.71875 L53,6.125 C53.125,5.875 53.40625,5.78125 53.65625,5.90625 C53.90625,6.03125 54,6.3125 53.875,6.5625 L52.5625,9.15625 C52.4375,9.40625 52.15625,9.5 51.90625,9.375 L51.90625,9.375 Z M53.625,5.96875 C53.40625,5.875 53.15625,5.9375 53.0625,6.15625 L51.75,8.75 C51.65625,8.9375 51.75,9.1875 51.9375,9.3125 C52.15625,9.40625 52.40625,9.34375 52.5,9.125 L53.8125,6.53125 C53.90625,6.34375 53.8125,6.09375 53.625,5.96875 L53.625,5.96875 Z"/>
          <path fill="#F3F3F3" fill-rule="nonzero" d="M52.53125,13.96875 C52.3125,13.8125 52.25,13.53125 52.40625,13.34375 L56.03125,7.9375 C56.15625,7.71875 56.4375,7.6875 56.65625,7.8125 C56.875,7.96875 56.9375,8.25 56.78125,8.4375 L53.15625,13.84375 C53.03125,14.0625 52.75,14.125 52.53125,13.96875 L52.53125,13.96875 Z"/>
          <path fill="#FFF" fill-rule="nonzero" d="M52.53125,14 C52.3125,13.84375 52.25,13.53125 52.375,13.3125 L56,7.90625 C56.15625,7.6875 56.4375,7.625 56.6875,7.78125 C56.90625,7.9375 56.96875,8.25 56.84375,8.46875 L53.21875,13.875 C53.0625,14.09375 52.75,14.15625 52.53125,14 L52.53125,14 Z M56.65625,7.84375 C56.46875,7.71875 56.1875,7.75 56.0625,7.9375 L52.4375,13.34375 C52.3125,13.53125 52.375,13.78125 52.5625,13.90625 C52.75,14.03125 53.03125,14 53.15625,13.8125 L56.78125,8.4375 C56.90625,8.25 56.84375,7.96875 56.65625,7.84375 L56.65625,7.84375 Z"/>
          <path fill="#F3F3F3" fill-rule="nonzero" d="M57.09375,12.8125 C56.90625,12.65625 56.84375,12.375 57,12.1875 L58.8125,9.90625 C58.96875,9.71875 59.25,9.6875 59.4375,9.84375 C59.625,10 59.6875,10.28125 59.53125,10.46875 L57.71875,12.75 C57.5625,12.9375 57.28125,12.96875 57.09375,12.8125 L57.09375,12.8125 Z"/>
          <path fill="#FFF" fill-rule="nonzero" d="M57.0625,12.84375 C56.84375,12.6875 56.8125,12.375 56.96875,12.15625 L58.78125,9.875 C58.9375,9.65625 59.25,9.625 59.46875,9.8125 C59.6875,9.96875 59.71875,10.28125 59.5625,10.5 L57.75,12.78125 C57.59375,13 57.28125,13.03125 57.0625,12.84375 L57.0625,12.84375 Z M59.40625,9.875 C59.21875,9.71875 58.96875,9.75 58.8125,9.9375 L57,12.21875 C56.875,12.40625 56.90625,12.65625 57.09375,12.8125 C57.28125,12.96875 57.53125,12.9375 57.6875,12.75 L59.5,10.46875 C59.625,10.28125 59.59375,10 59.40625,9.875 L59.40625,9.875 Z"/>
          <path fill="#F3F3F3" fill-rule="nonzero" d="M56.78125,17.5 C56.59375,17.3125 56.59375,17.03125 56.78125,16.875 L61.40625,12.28125 C61.59375,12.09375 61.875,12.125 62.03125,12.28125 C62.1875,12.4375 62.21875,12.75 62.03125,12.90625 L57.4375,17.5 C57.25,17.6875 56.96875,17.6875 56.78125,17.5 L56.78125,17.5 Z"/>
          <path fill="#FFF" fill-rule="nonzero" d="M56.75,17.53125 C56.5625,17.34375 56.5625,17.03125 56.75,16.84375 L61.375,12.25 C61.5625,12.0625 61.875,12.0625 62.0625,12.25 C62.25,12.4375 62.25,12.75 62.0625,12.9375 L57.4375,17.53125 C57.25,17.71875 56.9375,17.71875 56.75,17.53125 L56.75,17.53125 Z M62.03125,12.28125 C61.875,12.125 61.59375,12.125 61.4375,12.28125 L56.8125,16.875 C56.65625,17.03125 56.65625,17.3125 56.8125,17.46875 C56.96875,17.625 57.25,17.625 57.40625,17.46875 L62.03125,12.875 C62.1875,12.71875 62.1875,12.46875 62.03125,12.28125 L62.03125,12.28125 Z"/>
          <path fill="#F3F3F3" fill-rule="nonzero" d="M61.46875,17.25 C61.3125,17.0625 61.3125,16.78125 61.5,16.625 L63.71875,14.75 C63.90625,14.59375 64.1875,14.625 64.34375,14.8125 C64.5,15 64.5,15.28125 64.3125,15.4375 L62.09375,17.3125 C61.90625,17.46875 61.625,17.4375 61.46875,17.25 L61.46875,17.25 Z"/>
          <path fill="#FFF" fill-rule="nonzero" d="M61.4375,17.28125 C61.25,17.0625 61.28125,16.75 61.46875,16.59375 L63.6875,14.71875 C63.875,14.53125 64.1875,14.5625 64.375,14.78125 C64.5625,15 64.53125,15.3125 64.34375,15.46875 L62.125,17.34375 C61.9375,17.53125 61.625,17.5 61.4375,17.28125 L61.4375,17.28125 Z M64.3125,14.8125 C64.15625,14.625 63.90625,14.625 63.71875,14.75 L61.5,16.625 C61.34375,16.78125 61.3125,17.03125 61.46875,17.21875 C61.625,17.40625 61.875,17.40625 62.0625,17.28125 L64.28125,15.40625 C64.46875,15.25 64.46875,15 64.3125,14.8125 L64.3125,14.8125 Z"/>
          <path fill="#F3F3F3" fill-rule="nonzero" d="M60.21875,21.75 C60.0625,21.53125 60.125,21.25 60.34375,21.125 L65.78125,17.5 C66,17.375 66.28125,17.4375 66.40625,17.625 C66.5625,17.84375 66.5,18.125 66.28125,18.25 L60.84375,21.875 C60.65625,22 60.375,21.9375 60.21875,21.75 L60.21875,21.75 Z"/>
          <path fill="#FFF" fill-rule="nonzero" d="M60.1875,21.75 C60.03125,21.53125 60.09375,21.21875 60.3125,21.0625 L65.75,17.4375 C65.96875,17.28125 66.28125,17.34375 66.4375,17.59375 C66.59375,17.8125 66.53125,18.125 66.3125,18.28125 L60.875,21.90625 C60.65625,22.0625 60.34375,22 60.1875,21.75 L60.1875,21.75 Z M66.375,17.65625 C66.25,17.46875 66,17.40625 65.8125,17.53125 L60.375,21.15625 C60.1875,21.28125 60.125,21.53125 60.28125,21.75 C60.40625,21.9375 60.65625,22 60.84375,21.875 L66.28125,18.25 C66.46875,18.09375 66.5,17.84375 66.375,17.65625 L66.375,17.65625 Z"/>
          <path fill="#F3F3F3" fill-rule="nonzero" d="M64.875,22.40625 C64.75,22.1875 64.8125,21.90625 65.03125,21.78125 L67.5625,20.34375 C67.78125,20.21875 68.0625,20.3125 68.1875,20.53125 C68.3125,20.75 68.25,21.03125 68.03125,21.15625 L65.5,22.59375 C65.28125,22.71875 65,22.625 64.875,22.40625 L64.875,22.40625 Z"/>
          <path fill="#FFF" fill-rule="nonzero" d="M64.84375,22.4375 C64.71875,22.1875 64.78125,21.90625 65,21.78125 L67.53125,20.34375 C67.75,20.21875 68.0625,20.3125 68.1875,20.53125 C68.3125,20.78125 68.25,21.0625 68.03125,21.1875 L65.5,22.625 C65.28125,22.75 64.96875,22.65625 64.84375,22.4375 L64.84375,22.4375 Z M68.15625,20.5625 C68.03125,20.34375 67.78125,20.28125 67.59375,20.40625 L65.0625,21.84375 C64.875,21.96875 64.8125,22.21875 64.90625,22.40625 C65.03125,22.625 65.28125,22.6875 65.46875,22.5625 L68,21.125 C68.1875,21.03125 68.25,20.78125 68.15625,20.5625 L68.15625,20.5625 Z"/>
          <path fill="#F3F3F3" fill-rule="nonzero" d="M62.78125,26.5625 C62.6875,26.3125 62.78125,26.0625 63.03125,25.96875 L69.0625,23.46875 C69.28125,23.375 69.5625,23.5 69.65625,23.71875 C69.75,23.96875 69.65625,24.21875 69.40625,24.3125 L63.375,26.8125 C63.15625,26.90625 62.875,26.8125 62.78125,26.5625 L62.78125,26.5625 Z"/>
          <path fill="#FFF" fill-rule="nonzero" d="M62.75,26.59375 C62.65625,26.34375 62.75,26.0625 63,25.9375 L69.03125,23.4375 C69.28125,23.34375 69.5625,23.46875 69.65625,23.71875 C69.75,23.96875 69.65625,24.25 69.40625,24.375 L63.375,26.875 C63.125,26.96875 62.84375,26.84375 62.75,26.59375 L62.75,26.59375 Z M69.59375,23.75 C69.5,23.53125 69.25,23.4375 69.0625,23.5 L63.03125,26 C62.8125,26.09375 62.71875,26.34375 62.8125,26.5625 C62.90625,26.78125 63.15625,26.875 63.34375,26.8125 L69.375,24.3125 C69.59375,24.21875 69.6875,23.96875 69.59375,23.75 L69.59375,23.75 Z"/>
          <path fill="#F3F3F3" fill-rule="nonzero" d="M67.1875,28.125 C67.09375,27.875 67.21875,27.625 67.46875,27.53125 L70.21875,26.625 C70.4375,26.53125 70.71875,26.6875 70.78125,26.90625 C70.875,27.15625 70.75,27.40625 70.5,27.5 L67.75,28.40625 C67.53125,28.5 67.28125,28.375 67.1875,28.125 L67.1875,28.125 Z"/>
          <path fill="#FFF" fill-rule="nonzero" d="M67.15625,28.15625 C67.0625,27.90625 67.1875,27.625 67.46875,27.53125 L70.21875,26.625 C70.46875,26.53125 70.75,26.6875 70.84375,26.9375 C70.9375,27.1875 70.8125,27.46875 70.53125,27.5625 L67.78125,28.46875 C67.53125,28.53125 67.25,28.40625 67.15625,28.15625 L67.15625,28.15625 Z M70.78125,26.96875 C70.71875,26.75 70.46875,26.625 70.25,26.6875 L67.5,27.59375 C67.28125,27.65625 67.1875,27.90625 67.25,28.125 C67.3125,28.34375 67.5625,28.46875 67.78125,28.40625 L70.53125,27.5 C70.75,27.40625 70.84375,27.1875 70.78125,26.96875 L70.78125,26.96875 Z"/>
          <path fill="#F3F3F3" fill-rule="nonzero" d="M64.375,31.84375 C64.3125,31.59375 64.46875,31.34375 64.71875,31.3125 L71.125,30.0625 C71.375,30 71.59375,30.1875 71.65625,30.4375 C71.71875,30.6875 71.5625,30.9375 71.3125,30.96875 L64.90625,32.21875 C64.65625,32.25 64.40625,32.09375 64.375,31.84375 L64.375,31.84375 Z"/>
          <path fill="#FFF" fill-rule="nonzero" d="M64.3125,31.84375 C64.25,31.5625 64.4375,31.3125 64.6875,31.25 L71.09375,30 C71.34375,29.9375 71.59375,30.125 71.65625,30.40625 C71.71875,30.6875 71.53125,30.9375 71.28125,31 L64.875,32.25 C64.625,32.3125 64.375,32.125 64.3125,31.84375 L64.3125,31.84375 Z M71.59375,30.4375 C71.5625,30.21875 71.34375,30.0625 71.125,30.09375 L64.71875,31.34375 C64.5,31.375 64.34375,31.625 64.40625,31.84375 C64.4375,32.0625 64.65625,32.21875 64.875,32.1875 L71.28125,30.9375 C71.5,30.875 71.65625,30.65625 71.59375,30.4375 L71.59375,30.4375 Z"/>
          <path fill="#F3F3F3" fill-rule="nonzero" d="M68.375,34.25 C68.34375,34 68.5,33.78125 68.75,33.75 L71.625,33.40625 C71.875,33.375 72.09375,33.5625 72.125,33.8125 C72.15625,34.0625 72,34.28125 71.75,34.3125 L68.875,34.65625 C68.65625,34.6875 68.40625,34.5 68.375,34.25 L68.375,34.25 Z"/>
          <path fill="#FFF" fill-rule="nonzero" d="M68.34375,34.25 C68.3125,33.96875 68.5,33.71875 68.75,33.6875 L71.625,33.34375 C71.875,33.3125 72.125,33.5 72.15625,33.78125 C72.1875,34.0625 72,34.3125 71.75,34.34375 L68.875,34.6875 C68.625,34.71875 68.375,34.53125 68.34375,34.25 L68.34375,34.25 Z M72.125,33.8125 C72.09375,33.59375 71.875,33.40625 71.65625,33.4375 L68.78125,33.78125 C68.5625,33.8125 68.40625,34.03125 68.4375,34.25 C68.46875,34.46875 68.6875,34.65625 68.90625,34.625 L71.78125,34.28125 C72,34.25 72.15625,34.03125 72.125,33.8125 L72.125,33.8125 Z"/>
          <path fill="#F3F3F3" fill-rule="nonzero" d="M64.875,37.28125 C64.875,37.03125 65.0625,36.8125 65.3125,36.8125 L71.84375,36.8125 C72.09375,36.8125 72.28125,37.03125 72.28125,37.28125 C72.28125,37.53125 72.09375,37.75 71.84375,37.75 L65.3125,37.75 C65.0625,37.75 64.875,37.53125 64.875,37.28125 L64.875,37.28125 Z"/>
          <path fill="#FFF" fill-rule="nonzero" d="M64.84375,37.28125 C64.84375,37 65.0625,36.78125 65.3125,36.78125 L71.84375,36.78125 C72.09375,36.78125 72.3125,37 72.3125,37.28125 C72.3125,37.5625 72.09375,37.78125 71.84375,37.78125 L65.3125,37.78125 C65.0625,37.78125 64.84375,37.5625 64.84375,37.28125 L64.84375,37.28125 Z M72.25,37.3125 C72.25,37.09375 72.0625,36.875 71.84375,36.875 L65.3125,36.875 C65.09375,36.875 64.90625,37.0625 64.90625,37.3125 C64.90625,37.53125 65.09375,37.75 65.3125,37.75 L71.84375,37.75 C72.0625,37.71875 72.25,37.53125 72.25,37.3125 L72.25,37.3125 Z"/>
          <path fill="#F3F3F3" fill-rule="nonzero" d="M68.34375,40.4375 C68.375,40.1875 68.5625,40 68.8125,40 L71.71875,40.21875 C71.96875,40.25 72.15625,40.46875 72.125,40.71875 C72.09375,40.96875 71.90625,41.15625 71.65625,41.15625 L68.75,40.9375 C68.53125,40.90625 68.34375,40.6875 68.34375,40.4375 L68.34375,40.4375 Z"/>
          <path fill="#FFF" fill-rule="nonzero" d="M68.3125,40.4375 C68.34375,40.15625 68.5625,39.96875 68.8125,39.96875 L71.71875,40.1875 C71.96875,40.21875 72.1875,40.4375 72.15625,40.71875 C72.125,41 71.90625,41.1875 71.65625,41.1875 L68.75,40.96875 C68.5,40.9375 68.3125,40.6875 68.3125,40.4375 L68.3125,40.4375 Z M72.125,40.71875 C72.15625,40.5 71.96875,40.28125 71.75,40.28125 L68.84375,40.0625 C68.625,40.0625 68.4375,40.21875 68.40625,40.46875 C68.375,40.6875 68.5625,40.90625 68.78125,40.90625 L71.6875,41.125 C71.90625,41.125 72.09375,40.9375 72.125,40.71875 L72.125,40.71875 Z"/>
          <path fill="#F3F3F3" fill-rule="nonzero" d="M64.3125,42.71875 C64.375,42.46875 64.59375,42.3125 64.84375,42.34375 L71.25,43.625 C71.5,43.6875 71.65625,43.90625 71.59375,44.15625 C71.53125,44.40625 71.3125,44.5625 71.0625,44.53125 L64.65625,43.25 C64.4375,43.21875 64.28125,42.96875 64.3125,42.71875 L64.3125,42.71875 Z"/>
          <path fill="#FFF" fill-rule="nonzero" d="M64.28125,42.71875 C64.34375,42.4375 64.59375,42.28125 64.84375,42.3125 L71.25,43.59375 C71.5,43.65625 71.6875,43.90625 71.625,44.1875 C71.5625,44.46875 71.3125,44.625 71.0625,44.59375 L64.65625,43.3125 C64.40625,43.25 64.25,43 64.28125,42.71875 L64.28125,42.71875 Z M71.5625,44.1875 C71.59375,43.96875 71.46875,43.75 71.25,43.6875 L64.84375,42.40625 C64.625,42.375 64.40625,42.5 64.34375,42.75 C64.3125,42.96875 64.4375,43.1875 64.65625,43.25 L71.0625,44.53125 C71.3125,44.5625 71.5,44.40625 71.5625,44.1875 L71.5625,44.1875 Z"/>
          <path fill="#F3F3F3" fill-rule="nonzero" d="M67.125,46.46875 C67.1875,46.21875 67.4375,46.0625 67.6875,46.125 L70.5,46.90625 C70.75,46.96875 70.875,47.21875 70.8125,47.46875 C70.75,47.71875 70.5,47.875 70.25,47.8125 L67.4375,47.03125 C67.1875,46.96875 67.0625,46.71875 67.125,46.46875 L67.125,46.46875 Z"/>
          <path fill="#FFF" fill-rule="nonzero" d="M67.09375,46.46875 C67.15625,46.21875 67.4375,46.03125 67.6875,46.125 L70.5,46.90625 C70.75,46.96875 70.90625,47.25 70.84375,47.5 C70.78125,47.75 70.5,47.9375 70.25,47.84375 L67.4375,47.0625 C67.1875,47 67.03125,46.75 67.09375,46.46875 L67.09375,46.46875 Z M70.75,47.5 C70.8125,47.28125 70.6875,47.03125 70.46875,46.96875 L67.65625,46.1875 C67.4375,46.125 67.21875,46.25 67.15625,46.5 C67.09375,46.71875 67.21875,46.96875 67.4375,47.03125 L70.25,47.8125 C70.46875,47.84375 70.6875,47.71875 70.75,47.5 L70.75,47.5 Z"/>
          <path fill="#F3F3F3" fill-rule="nonzero" d="M62.71875,47.96875 C62.8125,47.71875 63.09375,47.625 63.3125,47.71875 L69.34375,50.21875 C69.5625,50.3125 69.6875,50.59375 69.59375,50.8125 C69.5,51.0625 69.21875,51.15625 69,51.0625 L62.96875,48.5625 C62.71875,48.46875 62.625,48.1875 62.71875,47.96875 L62.71875,47.96875 Z"/>
          <path fill="#FFF" fill-rule="nonzero" d="M62.6875,47.9375 C62.78125,47.6875 63.0625,47.5625 63.3125,47.65625 L69.34375,50.15625 C69.59375,50.25 69.6875,50.53125 69.59375,50.8125 C69.5,51.0625 69.21875,51.1875 68.96875,51.09375 L62.9375,48.59375 C62.6875,48.46875 62.59375,48.1875 62.6875,47.9375 L62.6875,47.9375 Z M69.53125,50.78125 C69.625,50.5625 69.53125,50.3125 69.3125,50.21875 L63.28125,47.71875 C63.0625,47.625 62.84375,47.75 62.75,47.96875 C62.65625,48.1875 62.75,48.4375 62.96875,48.53125 L69,51.03125 C69.21875,51.09375 69.46875,51 69.53125,50.78125 L69.53125,50.78125 Z"/>
          <path fill="#F3F3F3" fill-rule="nonzero" d="M64.75,52.1875 C64.875,51.96875 65.125,51.875 65.34375,51.96875 L67.9375,53.28125 C68.15625,53.375 68.25,53.65625 68.125,53.90625 C68,54.125 67.75,54.21875 67.53125,54.125 L64.9375,52.8125 C64.71875,52.6875 64.625,52.40625 64.75,52.1875 L64.75,52.1875 Z"/>
          <path fill="#FFF" fill-rule="nonzero" d="M64.71875,52.15625 C64.84375,51.90625 65.125,51.8125 65.375,51.9375 L67.96875,53.25 C68.21875,53.375 68.3125,53.65625 68.1875,53.90625 C68.0625,54.15625 67.78125,54.25 67.53125,54.125 L64.9375,52.8125 C64.6875,52.71875 64.59375,52.40625 64.71875,52.15625 L64.71875,52.15625 Z M68.09375,53.875 C68.1875,53.65625 68.125,53.40625 67.90625,53.3125 L65.3125,52 C65.125,51.90625 64.875,52 64.75,52.1875 C64.65625,52.40625 64.71875,52.65625 64.9375,52.75 L67.53125,54.0625 C67.75,54.15625 68,54.09375 68.09375,53.875 L68.09375,53.875 Z"/>
          <path fill="#F3F3F3" fill-rule="nonzero" d="M60.15625,52.78125 C60.3125,52.5625 60.5625,52.5 60.78125,52.65625 L66.21875,56.28125 C66.4375,56.40625 66.46875,56.6875 66.34375,56.90625 C66.1875,57.125 65.9375,57.1875 65.71875,57.03125 L60.28125,53.40625 C60.0625,53.25 60,52.96875 60.15625,52.78125 L60.15625,52.78125 Z"/>
          <path fill="#FFF" fill-rule="nonzero" d="M60.125,52.75 C60.28125,52.53125 60.59375,52.46875 60.8125,52.59375 L66.25,56.21875 C66.46875,56.375 66.53125,56.65625 66.375,56.90625 C66.21875,57.125 65.90625,57.1875 65.6875,57.0625 L60.25,53.4375 C60,53.28125 59.96875,52.96875 60.125,52.75 L60.125,52.75 Z M66.28125,56.875 C66.40625,56.6875 66.375,56.40625 66.1875,56.28125 L60.75,52.65625 C60.5625,52.53125 60.3125,52.59375 60.1875,52.78125 C60.0625,52.96875 60.09375,53.25 60.28125,53.375 L65.71875,57 C65.90625,57.125 66.15625,57.0625 66.28125,56.875 L66.28125,56.875 Z"/>
          <path fill="#F3F3F3" fill-rule="nonzero" d="M61.3125,57.3125 C61.46875,57.125 61.75,57.0625 61.9375,57.21875 L64.21875,59 C64.40625,59.15625 64.4375,59.4375 64.28125,59.625 C64.125,59.8125 63.84375,59.875 63.65625,59.71875 L61.375,57.9375 C61.1875,57.78125 61.15625,57.5 61.3125,57.3125 L61.3125,57.3125 Z"/>
          <path fill="#FFF" fill-rule="nonzero" d="M61.28125,57.28125 C61.4375,57.0625 61.75,57.03125 61.96875,57.1875 L64.25,58.96875 C64.46875,59.125 64.5,59.4375 64.34375,59.65625 C64.1875,59.875 63.875,59.90625 63.65625,59.75 L61.375,57.96875 C61.15625,57.8125 61.125,57.5 61.28125,57.28125 L61.28125,57.28125 Z M64.28125,59.625 C64.4375,59.4375 64.40625,59.1875 64.21875,59.03125 L61.9375,57.25 C61.75,57.125 61.5,57.15625 61.34375,57.34375 C61.1875,57.53125 61.21875,57.78125 61.40625,57.9375 L63.6875,59.71875 C63.875,59.84375 64.125,59.8125 64.28125,59.625 L64.28125,59.625 Z"/>
          <path fill="#F3F3F3" fill-rule="nonzero" d="M56.65625,57 C56.84375,56.8125 57.125,56.8125 57.28125,57 L61.90625,61.59375 C62.09375,61.78125 62.0625,62.0625 61.90625,62.21875 C61.71875,62.40625 61.4375,62.40625 61.28125,62.21875 L56.65625,57.625 C56.5,57.46875 56.5,57.15625 56.65625,57 L56.65625,57 Z"/>
          <path fill="#FFF" fill-rule="nonzero" d="M56.65625,56.96875 C56.84375,56.78125 57.15625,56.78125 57.34375,56.96875 L61.96875,61.5625 C62.15625,61.75 62.15625,62.0625 61.96875,62.25 C61.78125,62.4375 61.46875,62.4375 61.28125,62.25 L56.65625,57.65625 C56.4375,57.46875 56.4375,57.15625 56.65625,56.96875 L56.65625,56.96875 Z M61.90625,62.1875 C62.0625,62.03125 62.0625,61.75 61.90625,61.59375 L57.28125,57 C57.125,56.84375 56.84375,56.84375 56.6875,57 C56.53125,57.15625 56.53125,57.4375 56.6875,57.59375 L61.3125,62.1875 C61.46875,62.375 61.71875,62.375 61.90625,62.1875 L61.90625,62.1875 Z"/>
          <path fill="#F3F3F3" fill-rule="nonzero" d="M56.9375,61.65625 C57.125,61.5 57.40625,61.5 57.5625,61.6875 L59.46875,63.875 C59.625,64.0625 59.59375,64.34375 59.40625,64.5 C59.21875,64.65625 58.9375,64.65625 58.78125,64.46875 L56.875,62.28125 C56.71875,62.125 56.75,61.84375 56.9375,61.65625 L56.9375,61.65625 Z"/>
          <path fill="#FFF" fill-rule="nonzero" d="M56.90625,61.65625 C57.125,61.46875 57.40625,61.5 57.59375,61.6875 L59.5,63.875 C59.6875,64.0625 59.65625,64.375 59.4375,64.5625 C59.21875,64.75 58.9375,64.71875 58.75,64.53125 L56.84375,62.34375 C56.6875,62.125 56.6875,61.8125 56.90625,61.65625 L56.90625,61.65625 Z M59.40625,64.5 C59.59375,64.34375 59.59375,64.09375 59.46875,63.90625 L57.5625,61.71875 C57.40625,61.5625 57.15625,61.53125 56.96875,61.6875 C56.78125,61.84375 56.78125,62.09375 56.90625,62.28125 L58.8125,64.46875 C58.96875,64.65625 59.21875,64.65625 59.40625,64.5 L59.40625,64.5 Z"/>
          <path fill="#F3F3F3" fill-rule="nonzero" d="M52.4375,60.46875 C52.65625,60.3125 52.9375,60.375 53.0625,60.59375 L56.6875,66 C56.8125,66.21875 56.75,66.5 56.5625,66.625 C56.34375,66.78125 56.0625,66.71875 55.9375,66.5 L52.3125,61.09375 C52.1875,60.875 52.25,60.59375 52.4375,60.46875 L52.4375,60.46875 Z"/>
          <path fill="#FFF" fill-rule="nonzero" d="M52.4375,60.4375 C52.65625,60.28125 52.96875,60.34375 53.125,60.5625 L56.75,65.96875 C56.90625,66.1875 56.84375,66.5 56.59375,66.65625 C56.375,66.8125 56.0625,66.75 55.90625,66.53125 L52.28125,61.125 C52.125,60.875 52.1875,60.59375 52.4375,60.4375 L52.4375,60.4375 Z M56.5625,66.59375 C56.75,66.46875 56.8125,66.21875 56.6875,66.03125 L53.0625,60.625 C52.9375,60.4375 52.6875,60.40625 52.46875,60.53125 C52.28125,60.65625 52.21875,60.90625 52.34375,61.09375 L55.96875,66.5 C56.09375,66.65625 56.375,66.71875 56.5625,66.59375 L56.5625,66.59375 Z"/>
          <path fill="#F3F3F3" fill-rule="nonzero" d="M51.78125,65.09375 C52,64.96875 52.28125,65.03125 52.40625,65.25 L53.84375,67.78125 C53.96875,68 53.875,68.28125 53.65625,68.40625 C53.4375,68.53125 53.15625,68.46875 53.03125,68.25 L51.59375,65.71875 C51.5,65.5 51.5625,65.21875 51.78125,65.09375 L51.78125,65.09375 Z"/>
          <path fill="#FFF" fill-rule="nonzero" d="M51.78125,65.0625 C52.03125,64.9375 52.3125,65 52.4375,65.21875 L53.875,67.75 C54,67.96875 53.9375,68.28125 53.6875,68.40625 C53.4375,68.53125 53.15625,68.46875 53.03125,68.25 L51.59375,65.71875 C51.46875,65.5 51.53125,65.21875 51.78125,65.0625 L51.78125,65.0625 Z M53.65625,68.375 C53.84375,68.25 53.9375,68 53.8125,67.8125 L52.375,65.28125 C52.25,65.09375 52,65.03125 51.8125,65.125 C51.625,65.25 51.53125,65.5 51.65625,65.6875 L53.09375,68.21875 C53.1875,68.40625 53.46875,68.5 53.65625,68.375 L53.65625,68.375 Z"/>
          <path fill="#F3F3F3" fill-rule="nonzero" d="M47.625,63.03125 C47.875,62.9375 48.125,63.03125 48.21875,63.25 L50.75,69.28125 C50.84375,69.5 50.71875,69.78125 50.5,69.875 C50.28125,69.96875 50,69.875 49.90625,69.65625 L47.375,63.625 C47.28125,63.40625 47.40625,63.125 47.625,63.03125 L47.625,63.03125 Z"/>
          <path fill="#FFF" fill-rule="nonzero" d="M47.625,63 C47.875,62.90625 48.15625,63 48.28125,63.25 L50.8125,69.28125 C50.90625,69.53125 50.78125,69.8125 50.53125,69.90625 C50.28125,70 50,69.90625 49.875,69.65625 L47.34375,63.625 C47.25,63.40625 47.375,63.125 47.625,63 L47.625,63 Z M50.46875,69.84375 C50.6875,69.75 50.78125,69.5 50.6875,69.3125 L48.15625,63.28125 C48.0625,63.0625 47.8125,62.96875 47.59375,63.0625 C47.375,63.15625 47.28125,63.40625 47.375,63.59375 L49.90625,69.625 C50.03125,69.84375 50.25,69.9375 50.46875,69.84375 L50.46875,69.84375 Z"/>
          <path fill="#F3F3F3" fill-rule="nonzero" d="M46.09375,67.46875 C46.34375,67.375 46.59375,67.5 46.6875,67.75 L47.59375,70.5 C47.6875,70.71875 47.53125,71 47.3125,71.0625 C47.0625,71.15625 46.8125,71.03125 46.71875,70.78125 L45.8125,68.03125 C45.71875,67.8125 45.84375,67.5625 46.09375,67.46875 L46.09375,67.46875 Z"/>
          <path fill="#FFF" fill-rule="nonzero" d="M46.0625,67.4375 C46.3125,67.34375 46.59375,67.46875 46.6875,67.71875 L47.59375,70.46875 C47.6875,70.71875 47.53125,71 47.28125,71.09375 C47.03125,71.1875 46.75,71.0625 46.65625,70.8125 L45.75,68.0625 C45.6875,67.8125 45.8125,67.53125 46.0625,67.4375 L46.0625,67.4375 Z M47.28125,71.03125 C47.5,70.96875 47.625,70.71875 47.5625,70.5 L46.65625,67.75 C46.59375,67.53125 46.34375,67.4375 46.125,67.5 C45.90625,67.5625 45.78125,67.8125 45.84375,68.03125 L46.75,70.78125 C46.8125,71 47.0625,71.125 47.28125,71.03125 L47.28125,71.03125 Z"/>
          <path fill="#F3F3F3" fill-rule="nonzero" d="M42.40625,64.625 C42.65625,64.5625 42.90625,64.71875 42.9375,64.96875 L44.25,71.375 C44.3125,71.625 44.125,71.84375 43.875,71.90625 C43.625,71.96875 43.375,71.8125 43.34375,71.5625 L42.03125,65.15625 C42,64.9375 42.15625,64.6875 42.40625,64.625 L42.40625,64.625 Z"/>
          <path fill="#FFF" fill-rule="nonzero" d="M42.40625,64.59375 C42.6875,64.53125 42.9375,64.71875 43,64.96875 L44.3125,71.375 C44.375,71.625 44.1875,71.90625 43.9375,71.9375 C43.65625,72 43.40625,71.8125 43.34375,71.5625 L42.03125,65.15625 C41.96875,64.90625 42.125,64.65625 42.40625,64.59375 L42.40625,64.59375 Z M43.875,71.875 C44.09375,71.84375 44.25,71.625 44.21875,71.375 L42.90625,64.96875 C42.875,64.75 42.625,64.59375 42.40625,64.65625 C42.1875,64.6875 42.03125,64.90625 42.0625,65.15625 L43.375,71.5625 C43.4375,71.78125 43.65625,71.90625 43.875,71.875 L43.875,71.875 Z"/>
          <path fill="#F3F3F3" fill-rule="nonzero" d="M40.03125,68.6875 C40.28125,68.65625 40.5,68.8125 40.5625,69.0625 L40.9375,71.9375 C40.96875,72.1875 40.78125,72.40625 40.53125,72.4375 C40.28125,72.46875 40.0625,72.3125 40,72.0625 L39.625,69.1875 C39.59375,68.9375 39.78125,68.71875 40.03125,68.6875 L40.03125,68.6875 Z"/>
          <path fill="#FFF" fill-rule="nonzero" d="M40.03125,68.65625 C40.3125,68.625 40.5625,68.8125 40.59375,69.0625 L40.96875,71.9375 C41,72.1875 40.8125,72.4375 40.53125,72.46875 C40.25,72.5 40,72.3125 39.96875,72.0625 L39.59375,69.1875 C39.5625,68.9375 39.75,68.6875 40.03125,68.65625 L40.03125,68.65625 Z M40.5,72.40625 C40.71875,72.375 40.90625,72.15625 40.875,71.9375 L40.5,69.0625 C40.46875,68.84375 40.25,68.6875 40.03125,68.71875 C39.8125,68.75 39.625,68.96875 39.65625,69.1875 L40.03125,72.0625 C40.0625,72.28125 40.28125,72.4375 40.5,72.40625 L40.5,72.40625 Z"/>
          <path fill="#F3F3F3" fill-rule="nonzero" d="M36.8125,65.1875 C37.0625,65.1875 37.28125,65.375 37.28125,65.625 L37.28125,72.15625 C37.28125,72.40625 37.0625,72.59375 36.8125,72.59375 C36.5625,72.59375 36.34375,72.40625 36.34375,72.15625 L36.34375,65.625 C36.375,65.375 36.5625,65.1875 36.8125,65.1875 L36.8125,65.1875 Z"/>
          <path fill="#FFF" fill-rule="nonzero" d="M36.8125,65.15625 C37.09375,65.15625 37.3125,65.375 37.3125,65.625 L37.3125,72.15625 C37.3125,72.40625 37.09375,72.625 36.8125,72.625 C36.53125,72.625 36.3125,72.40625 36.3125,72.15625 L36.3125,65.625 C36.3125,65.375 36.5625,65.15625 36.8125,65.15625 L36.8125,65.15625 Z M36.8125,72.5625 C37.03125,72.5625 37.25,72.375 37.25,72.15625 L37.25,65.625 C37.25,65.40625 37.0625,65.21875 36.8125,65.21875 C36.59375,65.21875 36.375,65.40625 36.375,65.625 L36.375,72.15625 C36.40625,72.375 36.59375,72.5625 36.8125,72.5625 L36.8125,72.5625 Z"/>
          <path fill="#F3F3F3" fill-rule="nonzero" d="M33.6875,68.6875 C33.9375,68.71875 34.125,68.90625 34.125,69.15625 L33.90625,72.0625 C33.875,72.3125 33.65625,72.5 33.40625,72.46875 C33.15625,72.4375 32.96875,72.25 32.96875,72 L33.1875,69.09375 C33.21875,68.84375 33.4375,68.65625 33.6875,68.6875 L33.6875,68.6875 Z"/>
          <path fill="#FFF" fill-rule="nonzero" d="M33.6875,68.65625 C33.96875,68.6875 34.15625,68.90625 34.15625,69.15625 L33.9375,72.0625 C33.90625,72.3125 33.6875,72.53125 33.40625,72.5 C33.125,72.46875 32.9375,72.25 32.9375,72 L33.15625,69.09375 C33.1875,68.8125 33.40625,68.625 33.6875,68.65625 L33.6875,68.65625 Z M33.40625,72.4375 C33.625,72.4375 33.84375,72.28125 33.84375,72.0625 L34.0625,69.15625 C34.0625,68.9375 33.90625,68.75 33.65625,68.71875 C33.4375,68.71875 33.21875,68.875 33.21875,69.09375 L33,72 C33,72.21875 33.1875,72.40625 33.40625,72.4375 L33.40625,72.4375 Z"/>
          <path fill="#F3F3F3" fill-rule="nonzero" d="M31.34375,64.625 C31.59375,64.6875 31.75,64.90625 31.71875,65.15625 L30.4375,71.5625 C30.375,71.8125 30.15625,71.96875 29.90625,71.90625 C29.65625,71.84375 29.5,71.625 29.53125,71.375 L30.8125,64.96875 C30.84375,64.75 31.09375,64.59375 31.34375,64.625 L31.34375,64.625 Z"/>
          <path fill="#FFF" fill-rule="nonzero" d="M31.34375,64.59375 C31.625,64.65625 31.78125,64.90625 31.75,65.15625 L30.46875,71.5625 C30.40625,71.8125 30.15625,72 29.875,71.9375 C29.59375,71.875 29.4375,71.625 29.46875,71.375 L30.75,64.96875 C30.8125,64.71875 31.0625,64.5625 31.34375,64.59375 L31.34375,64.59375 Z M29.875,71.875 C30.09375,71.90625 30.3125,71.78125 30.375,71.5625 L31.65625,65.15625 C31.6875,64.9375 31.5625,64.71875 31.3125,64.65625 C31.09375,64.625 30.875,64.75 30.8125,64.96875 L29.53125,71.375 C29.5,71.625 29.65625,71.8125 29.875,71.875 L29.875,71.875 Z"/>
          <path fill="#F3F3F3" fill-rule="nonzero" d="M27.59375,67.4375 C27.84375,67.5 28,67.75 27.9375,68 L27.15625,70.8125 C27.09375,71.0625 26.84375,71.1875 26.59375,71.125 C26.34375,71.0625 26.1875,70.8125 26.25,70.5625 L27.03125,67.75 C27.09375,67.5 27.34375,67.375 27.59375,67.4375 L27.59375,67.4375 Z"/>
          <path fill="#FFF" fill-rule="nonzero" d="M27.59375,67.40625 C27.84375,67.46875 28.03125,67.75 27.9375,68 L27.15625,70.8125 C27.09375,71.0625 26.8125,71.21875 26.5625,71.15625 C26.3125,71.09375 26.125,70.8125 26.21875,70.5625 L27,67.75 C27.0625,67.5 27.3125,67.34375 27.59375,67.40625 L27.59375,67.40625 Z M26.5625,71.0625 C26.78125,71.125 27.03125,71 27.09375,70.78125 L27.875,67.96875 C27.9375,67.75 27.8125,67.53125 27.5625,67.46875 C27.34375,67.40625 27.09375,67.53125 27.03125,67.75 L26.25,70.5625 C26.21875,70.78125 26.34375,71 26.5625,71.0625 L26.5625,71.0625 Z"/>
          <path fill="#F3F3F3" fill-rule="nonzero" d="M26.0625,63.03125 C26.3125,63.125 26.40625,63.40625 26.3125,63.625 L23.8125,69.65625 C23.71875,69.875 23.4375,70 23.21875,69.875 C23,69.75 22.875,69.5 22.96875,69.28125 L25.46875,63.25 C25.5625,63.03125 25.84375,62.90625 26.0625,63.03125 L26.0625,63.03125 Z"/>
          <path fill="#FFF" fill-rule="nonzero" d="M26.0625,63 C26.3125,63.09375 26.4375,63.375 26.34375,63.625 L23.84375,69.65625 C23.75,69.90625 23.46875,70 23.1875,69.90625 C22.9375,69.8125 22.8125,69.53125 22.90625,69.28125 L25.40625,63.25 C25.53125,63 25.8125,62.875 26.0625,63 L26.0625,63 Z M23.21875,69.84375 C23.4375,69.9375 23.6875,69.84375 23.78125,69.625 L26.28125,63.59375 C26.375,63.375 26.25,63.15625 26.03125,63.0625 C25.8125,62.96875 25.5625,63.0625 25.46875,63.28125 L22.96875,69.3125 C22.90625,69.5 23,69.75 23.21875,69.84375 L23.21875,69.84375 Z"/>
          <path fill="#F3F3F3" fill-rule="nonzero" d="M21.84375,65.03125 C22.0625,65.15625 22.15625,65.40625 22.0625,65.625 L20.75,68.21875 C20.625,68.4375 20.375,68.53125 20.125,68.40625 C19.90625,68.28125 19.8125,68.03125 19.90625,67.8125 L21.21875,65.21875 C21.34375,65 21.59375,64.90625 21.84375,65.03125 L21.84375,65.03125 Z"/>
          <path fill="#FFF" fill-rule="nonzero" d="M21.84375,65 C22.09375,65.125 22.1875,65.40625 22.0625,65.65625 L20.75,68.25 C20.625,68.5 20.34375,68.59375 20.09375,68.46875 C19.84375,68.34375 19.75,68.0625 19.875,67.8125 L21.1875,65.21875 C21.3125,64.96875 21.59375,64.875 21.84375,65 L21.84375,65 Z M20.125,68.40625 C20.34375,68.5 20.59375,68.4375 20.6875,68.21875 L22,65.625 C22.09375,65.4375 22,65.1875 21.8125,65.0625 C21.59375,64.96875 21.34375,65.03125 21.25,65.25 L19.9375,67.84375 C19.84375,68.03125 19.9375,68.28125 20.125,68.40625 L20.125,68.40625 Z"/>
          <path fill="#F3F3F3" fill-rule="nonzero" d="M21.21875,60.40625 C21.4375,60.5625 21.5,60.84375 21.34375,61.03125 L17.71875,66.4375 C17.59375,66.65625 17.3125,66.6875 17.09375,66.5625 C16.875,66.40625 16.8125,66.125 16.96875,65.9375 L20.59375,60.53125 C20.71875,60.3125 21,60.25 21.21875,60.40625 L21.21875,60.40625 Z"/>
          <path fill="#FFF" fill-rule="nonzero" d="M21.21875,60.375 C21.4375,60.53125 21.5,60.84375 21.375,61.0625 L17.75,66.46875 C17.59375,66.6875 17.3125,66.75 17.0625,66.59375 C16.84375,66.4375 16.78125,66.125 16.90625,65.90625 L20.53125,60.5 C20.6875,60.28125 21,60.21875 21.21875,60.375 L21.21875,60.375 Z M17.09375,66.53125 C17.28125,66.65625 17.5625,66.625 17.6875,66.4375 L21.3125,61.03125 C21.4375,60.84375 21.375,60.59375 21.1875,60.46875 C21,60.34375 20.71875,60.375 20.59375,60.5625 L16.96875,65.9375 C16.84375,66.125 16.90625,66.40625 17.09375,66.53125 L17.09375,66.53125 Z"/>
          <path fill="#F3F3F3" fill-rule="nonzero" d="M16.65625,61.5625 C16.84375,61.71875 16.90625,62 16.75,62.1875 L14.9375,64.46875 C14.78125,64.65625 14.5,64.6875 14.3125,64.53125 C14.125,64.375 14.0625,64.09375 14.21875,63.90625 L16.03125,61.625 C16.1875,61.4375 16.46875,61.40625 16.65625,61.5625 L16.65625,61.5625 Z"/>
          <path fill="#FFF" fill-rule="nonzero" d="M16.6875,61.53125 C16.90625,61.6875 16.9375,62 16.78125,62.21875 L14.96875,64.5 C14.8125,64.71875 14.5,64.75 14.28125,64.5625 C14.0625,64.40625 14.03125,64.09375 14.1875,63.875 L16,61.59375 C16.15625,61.375 16.46875,61.34375 16.6875,61.53125 L16.6875,61.53125 Z M14.34375,64.5 C14.53125,64.65625 14.78125,64.625 14.9375,64.4375 L16.75,62.15625 C16.875,61.96875 16.84375,61.71875 16.65625,61.5625 C16.46875,61.40625 16.21875,61.4375 16.0625,61.625 L14.25,63.90625 C14.125,64.09375 14.15625,64.375 14.34375,64.5 L14.34375,64.5 Z"/>
          <path fill="#F3F3F3" fill-rule="nonzero" d="M16.96875,56.875 C17.15625,57.0625 17.15625,57.34375 16.96875,57.5 L12.34375,62.09375 C12.15625,62.28125 11.875,62.25 11.71875,62.09375 C11.5625,61.9375 11.53125,61.625 11.71875,61.46875 L16.3125,56.875 C16.5,56.6875 16.78125,56.6875 16.96875,56.875 L16.96875,56.875 Z"/>
          <path fill="#FFF" fill-rule="nonzero" d="M17,56.84375 C17.1875,57.03125 17.1875,57.34375 17,57.53125 L12.375,62.125 C12.1875,62.3125 11.875,62.3125 11.6875,62.125 C11.5,61.9375 11.5,61.625 11.6875,61.4375 L16.3125,56.84375 C16.5,56.65625 16.8125,56.65625 17,56.84375 L17,56.84375 Z M11.71875,62.09375 C11.875,62.25 12.15625,62.25 12.3125,62.09375 L16.9375,57.5 C17.09375,57.34375 17.09375,57.0625 16.9375,56.90625 C16.78125,56.75 16.5,56.75 16.34375,56.90625 L11.71875,61.5 C11.5625,61.65625 11.5625,61.90625 11.71875,62.09375 L11.71875,62.09375 Z"/>
          <path fill="#F3F3F3" fill-rule="nonzero" d="M12.28125,57.125 C12.4375,57.3125 12.4375,57.59375 12.25,57.75 L10.03125,59.625 C9.84375,59.78125 9.5625,59.75 9.40625,59.5625 C9.25,59.375 9.25,59.09375 9.4375,58.9375 L11.65625,57.0625 C11.84375,56.90625 12.125,56.9375 12.28125,57.125 L12.28125,57.125 Z"/>
          <path fill="#FFF" fill-rule="nonzero" d="M12.3125,57.09375 C12.5,57.3125 12.46875,57.625 12.28125,57.78125 L10.0625,59.65625 C9.875,59.84375 9.5625,59.8125 9.375,59.59375 C9.1875,59.375 9.21875,59.0625 9.40625,58.90625 L11.625,57.03125 C11.8125,56.84375 12.125,56.875 12.3125,57.09375 L12.3125,57.09375 Z M9.4375,59.5625 C9.59375,59.75 9.84375,59.75 10.03125,59.625 L12.25,57.75 C12.40625,57.59375 12.4375,57.34375 12.28125,57.15625 C12.125,56.96875 11.875,56.96875 11.6875,57.09375 L9.46875,58.96875 C9.28125,59.125 9.28125,59.375 9.4375,59.5625 L9.4375,59.5625 Z"/>
          <path fill="#F3F3F3" fill-rule="nonzero" d="M13.53125,52.625 C13.6875,52.84375 13.625,53.125 13.40625,53.25 L7.96875,56.875 C7.75,57 7.46875,56.9375 7.34375,56.75 C7.1875,56.53125 7.25,56.25 7.46875,56.125 L12.90625,52.5 C13.09375,52.375 13.375,52.4375 13.53125,52.625 L13.53125,52.625 Z"/>
          <path fill="#FFF" fill-rule="nonzero" d="M13.5625,52.625 C13.71875,52.84375 13.65625,53.15625 13.4375,53.3125 L8,56.9375 C7.78125,57.09375 7.46875,57.03125 7.3125,56.78125 C7.15625,56.5625 7.21875,56.25 7.4375,56.09375 L12.875,52.46875 C13.09375,52.3125 13.40625,52.375 13.5625,52.625 L13.5625,52.625 Z M7.375,56.71875 C7.5,56.90625 7.75,56.96875 7.9375,56.84375 L13.375,53.21875 C13.5625,53.09375 13.625,52.84375 13.46875,52.625 C13.34375,52.4375 13.09375,52.375 12.90625,52.5 L7.46875,56.125 C7.28125,56.28125 7.25,56.53125 7.375,56.71875 L7.375,56.71875 Z"/>
          <path fill="#F3F3F3" fill-rule="nonzero" d="M8.875,51.96875 C9,52.1875 8.9375,52.46875 8.71875,52.59375 L6.1875,54.03125 C5.96875,54.15625 5.6875,54.0625 5.5625,53.84375 C5.4375,53.625 5.5,53.34375 5.71875,53.21875 L8.25,51.78125 C8.46875,51.65625 8.75,51.75 8.875,51.96875 L8.875,51.96875 Z"/>
          <path fill="#FFF" fill-rule="nonzero" d="M8.90625,51.9375 C9.03125,52.1875 8.96875,52.46875 8.75,52.59375 L6.21875,54.03125 C6,54.15625 5.6875,54.0625 5.5625,53.84375 C5.4375,53.59375 5.5,53.3125 5.71875,53.1875 L8.25,51.75 C8.46875,51.625 8.78125,51.71875 8.90625,51.9375 L8.90625,51.9375 Z M5.59375,53.8125 C5.71875,54.03125 5.96875,54.09375 6.15625,53.96875 L8.6875,52.53125 C8.875,52.40625 8.9375,52.15625 8.84375,51.96875 C8.71875,51.75 8.46875,51.6875 8.28125,51.8125 L5.75,53.25 C5.5625,53.34375 5.5,53.59375 5.59375,53.8125 L5.59375,53.8125 Z"/>
          <path fill="#F3F3F3" fill-rule="nonzero" d="M10.96875,47.8125 C11.0625,48.0625 10.96875,48.3125 10.71875,48.40625 L4.6875,50.90625 C4.46875,51 4.1875,50.875 4.09375,50.65625 C4,50.40625 4.09375,50.15625 4.34375,50.0625 L10.375,47.5625 C10.59375,47.46875 10.875,47.5625 10.96875,47.8125 L10.96875,47.8125 Z"/>
          <path fill="#FFF" fill-rule="nonzero" d="M11,47.78125 C11.09375,48.03125 11,48.3125 10.75,48.4375 L4.71875,50.9375 C4.46875,51.03125 4.1875,50.90625 4.09375,50.65625 C4,50.40625 4.09375,50.125 4.34375,50 L10.375,47.5 C10.625,47.40625 10.90625,47.53125 11,47.78125 L11,47.78125 Z M4.15625,50.625 C4.25,50.84375 4.5,50.9375 4.6875,50.875 L10.71875,48.375 C10.9375,48.28125 11.03125,48.03125 10.9375,47.8125 C10.84375,47.59375 10.59375,47.5 10.40625,47.5625 L4.375,50.0625 C4.15625,50.15625 4.0625,50.40625 4.15625,50.625 L4.15625,50.625 Z"/>
          <path fill="#F3F3F3" fill-rule="nonzero" d="M6.5625,46.25 C6.65625,46.5 6.53125,46.75 6.28125,46.84375 L3.53125,47.75 C3.3125,47.84375 3.03125,47.6875 2.96875,47.46875 C2.875,47.21875 3,46.96875 3.25,46.875 L6,45.96875 C6.21875,45.875 6.46875,46 6.5625,46.25 L6.5625,46.25 Z"/>
          <path fill="#FFF" fill-rule="nonzero" d="M6.59375,46.21875 C6.6875,46.46875 6.5625,46.75 6.28125,46.84375 L3.53125,47.75 C3.28125,47.84375 3,47.6875 2.90625,47.4375 C2.8125,47.1875 2.9375,46.90625 3.21875,46.8125 L5.96875,45.90625 C6.21875,45.84375 6.5,45.96875 6.59375,46.21875 L6.59375,46.21875 Z M2.96875,47.40625 C3.03125,47.625 3.28125,47.75 3.5,47.6875 L6.25,46.78125 C6.46875,46.71875 6.5625,46.46875 6.5,46.25 C6.4375,46.03125 6.1875,45.90625 5.96875,45.96875 L3.21875,46.875 C3,46.96875 2.90625,47.1875 2.96875,47.40625 L2.96875,47.40625 Z"/>
          <path fill="#F3F3F3" fill-rule="nonzero" d="M9.375,42.53125 C9.4375,42.78125 9.28125,43.03125 9.03125,43.0625 L2.625,44.3125 C2.375,44.375 2.15625,44.1875 2.09375,43.9375 C2.03125,43.6875 2.1875,43.4375 2.4375,43.40625 L8.84375,42.15625 C9.09375,42.125 9.34375,42.28125 9.375,42.53125 L9.375,42.53125 Z"/>
          <path fill="#FFF" fill-rule="nonzero" d="M9.4375,42.53125 C9.5,42.8125 9.3125,43.0625 9.0625,43.125 L2.65625,44.375 C2.40625,44.4375 2.15625,44.25 2.09375,43.96875 C2.03125,43.6875 2.21875,43.4375 2.46875,43.375 L8.875,42.125 C9.125,42.0625 9.375,42.25 9.4375,42.53125 L9.4375,42.53125 Z M2.15625,43.9375 C2.1875,44.15625 2.40625,44.3125 2.625,44.28125 L9.03125,43.03125 C9.25,43 9.40625,42.75 9.34375,42.53125 C9.3125,42.3125 9.09375,42.15625 8.875,42.1875 L2.46875,43.4375 C2.25,43.5 2.09375,43.71875 2.15625,43.9375 L2.15625,43.9375 Z"/>
          <path fill="#F3F3F3" fill-rule="nonzero" d="M5.375,40.125 C5.40625,40.375 5.25,40.59375 5,40.625 L2.125,40.96875 C1.875,41 1.65625,40.8125 1.625,40.5625 C1.59375,40.3125 1.75,40.09375 2,40.0625 L4.875,39.71875 C5.09375,39.6875 5.34375,39.875 5.375,40.125 L5.375,40.125 Z"/>
          <path fill="#FFF" fill-rule="nonzero" d="M5.40625,40.125 C5.4375,40.40625 5.25,40.65625 5,40.6875 L2.125,41.03125 C1.875,41.0625 1.625,40.875 1.59375,40.59375 C1.5625,40.3125 1.75,40.0625 2,40.03125 L4.875,39.6875 C5.125,39.65625 5.375,39.84375 5.40625,40.125 L5.40625,40.125 Z M1.625,40.5625 C1.65625,40.78125 1.875,40.96875 2.09375,40.9375 L4.96875,40.59375 C5.1875,40.5625 5.34375,40.34375 5.3125,40.125 C5.28125,39.90625 5.0625,39.71875 4.84375,39.75 L1.96875,40.09375 C1.75,40.125 1.59375,40.34375 1.625,40.5625 L1.625,40.5625 Z"/>
          <path fill="#F3F3F3" fill-rule="nonzero" d="M8.875,37.09375 C8.875,37.34375 8.6875,37.5625 8.4375,37.5625 L1.90625,37.5625 C1.65625,37.5625 1.46875,37.34375 1.46875,37.09375 C1.46875,36.84375 1.65625,36.625 1.90625,36.625 L8.4375,36.625 C8.6875,36.625 8.875,36.84375 8.875,37.09375 L8.875,37.09375 Z"/>
          <path fill="#FFF" fill-rule="nonzero" d="M8.90625,37.09375 C8.90625,37.375 8.6875,37.59375 8.4375,37.59375 L1.90625,37.59375 C1.65625,37.59375 1.4375,37.375 1.4375,37.09375 C1.4375,36.8125 1.65625,36.59375 1.90625,36.59375 L8.4375,36.59375 C8.6875,36.59375 8.90625,36.8125 8.90625,37.09375 L8.90625,37.09375 Z M1.5,37.0625 C1.5,37.28125 1.6875,37.5 1.90625,37.5 L8.4375,37.5 C8.65625,37.5 8.84375,37.3125 8.84375,37.0625 C8.84375,36.84375 8.65625,36.625 8.4375,36.625 L1.90625,36.625 C1.6875,36.65625 1.5,36.84375 1.5,37.0625 L1.5,37.0625 Z"/>
          <path fill="#E2E2E2" fill-rule="nonzero" d="M5.40625,33.9375 C5.375,34.1875 5.1875,34.375 4.9375,34.375 L2.03125,34.15625 C1.78125,34.125 1.59375,33.90625 1.625,33.65625 C1.65625,33.40625 1.84375,33.21875 2.09375,33.21875 L5,33.4375 C5.21875,33.46875 5.40625,33.6875 5.40625,33.9375 L5.40625,33.9375 Z"/>
          <path fill="#FFF" fill-rule="nonzero" d="M5.4375,33.9375 C5.40625,34.21875 5.1875,34.40625 4.9375,34.40625 L2.03125,34.1875 C1.78125,34.15625 1.5625,33.9375 1.59375,33.65625 C1.625,33.375 1.84375,33.1875 2.09375,33.1875 L5,33.40625 C5.25,33.4375 5.4375,33.6875 5.4375,33.9375 L5.4375,33.9375 Z M1.625,33.65625 C1.59375,33.875 1.78125,34.09375 2,34.09375 L4.90625,34.3125 C5.125,34.3125 5.3125,34.15625 5.34375,33.90625 C5.375,33.6875 5.1875,33.46875 4.96875,33.46875 L2.0625,33.25 C1.84375,33.25 1.65625,33.4375 1.625,33.65625 L1.625,33.65625 Z"/>
          <path fill="#F3F3F3" fill-rule="nonzero" d="M9.4375,31.65625 C9.375,31.90625 9.15625,32.0625 8.90625,32.03125 L2.5,30.71875 C2.25,30.65625 2.09375,30.4375 2.15625,30.1875 C2.21875,29.9375 2.4375,29.78125 2.6875,29.8125 L9.09375,31.09375 C9.3125,31.15625 9.46875,31.40625 9.4375,31.65625 L9.4375,31.65625 Z"/>
          <path fill="#FFF" fill-rule="nonzero" d="M9.46875,31.65625 C9.40625,31.9375 9.15625,32.09375 8.90625,32.0625 L2.5,30.78125 C2.25,30.71875 2.0625,30.46875 2.125,30.1875 C2.1875,29.90625 2.4375,29.75 2.6875,29.78125 L9.09375,31.0625 C9.34375,31.125 9.5,31.375 9.46875,31.65625 L9.46875,31.65625 Z M2.1875,30.1875 C2.15625,30.40625 2.28125,30.625 2.5,30.6875 L8.90625,31.96875 C9.125,32 9.34375,31.875 9.40625,31.625 C9.4375,31.40625 9.3125,31.1875 9.09375,31.125 L2.6875,29.84375 C2.4375,29.8125 2.25,29.96875 2.1875,30.1875 L2.1875,30.1875 Z"/>
          <path fill="#F3F3F3" fill-rule="nonzero" d="M6.625,27.90625 C6.5625,28.15625 6.3125,28.3125 6.0625,28.25 L3.25,27.46875 C3,27.40625 2.875,27.15625 2.9375,26.90625 C3,26.65625 3.25,26.5 3.5,26.5625 L6.3125,27.34375 C6.5625,27.40625 6.6875,27.65625 6.625,27.90625 L6.625,27.90625 Z"/>
          <path fill="#FFF" fill-rule="nonzero" d="M6.65625,27.90625 C6.59375,28.15625 6.3125,28.34375 6.0625,28.25 L3.25,27.46875 C3,27.40625 2.84375,27.125 2.90625,26.875 C2.96875,26.625 3.25,26.4375 3.5,26.53125 L6.3125,27.3125 C6.5625,27.375 6.71875,27.625 6.65625,27.90625 L6.65625,27.90625 Z M3,26.875 C2.9375,27.09375 3.0625,27.34375 3.28125,27.40625 L6.09375,28.1875 C6.3125,28.25 6.53125,28.125 6.59375,27.875 C6.65625,27.65625 6.53125,27.40625 6.3125,27.34375 L3.5,26.5625 C3.28125,26.53125 3.0625,26.65625 3,26.875 L3,26.875 Z"/>
          <path fill="#F3F3F3" fill-rule="nonzero" d="M11.03125,26.40625 C10.9375,26.65625 10.65625,26.75 10.4375,26.65625 L4.40625,24.15625 C4.1875,24.0625 4.0625,23.78125 4.15625,23.5625 C4.25,23.3125 4.53125,23.21875 4.75,23.3125 L10.78125,25.8125 C11.03125,25.90625 11.125,26.1875 11.03125,26.40625 L11.03125,26.40625 Z"/>
          <path fill="#FFF" fill-rule="nonzero" d="M11.0625,26.4375 C10.96875,26.6875 10.6875,26.8125 10.4375,26.71875 L4.40625,24.21875 C4.15625,24.125 4.0625,23.84375 4.15625,23.5625 C4.25,23.3125 4.53125,23.1875 4.78125,23.28125 L10.8125,25.78125 C11.0625,25.90625 11.15625,26.1875 11.0625,26.4375 L11.0625,26.4375 Z M4.21875,23.59375 C4.125,23.8125 4.21875,24.0625 4.4375,24.15625 L10.46875,26.65625 C10.6875,26.75 10.90625,26.625 11,26.40625 C11.09375,26.1875 11,25.9375 10.78125,25.84375 L4.75,23.34375 C4.53125,23.28125 4.28125,23.375 4.21875,23.59375 L4.21875,23.59375 Z"/>
          <path fill="#F3F3F3" fill-rule="nonzero" d="M9,22.1875 C8.875,22.40625 8.625,22.5 8.40625,22.40625 L5.8125,21.09375 C5.59375,21 5.5,20.71875 5.625,20.46875 C5.75,20.25 6,20.15625 6.21875,20.25 L8.8125,21.5625 C9.03125,21.6875 9.125,21.96875 9,22.1875 L9,22.1875 Z"/>
          <path fill="#FFF" fill-rule="nonzero" d="M9.03125,22.21875 C8.90625,22.46875 8.625,22.5625 8.375,22.4375 L5.78125,21.125 C5.53125,21 5.4375,20.71875 5.5625,20.46875 C5.6875,20.21875 5.96875,20.125 6.21875,20.25 L8.8125,21.5625 C9.0625,21.65625 9.15625,21.96875 9.03125,22.21875 L9.03125,22.21875 Z M5.65625,20.5 C5.5625,20.71875 5.625,20.96875 5.84375,21.0625 L8.4375,22.375 C8.625,22.46875 8.875,22.375 9,22.1875 C9.09375,21.96875 9.03125,21.71875 8.8125,21.625 L6.1875,20.3125 C6,20.21875 5.75,20.28125 5.65625,20.5 L5.65625,20.5 Z"/>
          <path fill="#F3F3F3" fill-rule="nonzero" d="M13.59375,21.59375 C13.4375,21.8125 13.1875,21.875 12.96875,21.71875 L7.5625,18.125 C7.34375,18 7.3125,17.71875 7.4375,17.5 C7.5625,17.28125 7.84375,17.21875 8.0625,17.375 L13.5,21 C13.6875,21.125 13.75,21.40625 13.59375,21.59375 L13.59375,21.59375 Z"/>
          <path fill="#FFF" fill-rule="nonzero" d="M13.625,21.625 C13.46875,21.84375 13.15625,21.90625 12.9375,21.78125 L7.53125,18.15625 C7.3125,18 7.25,17.71875 7.40625,17.46875 C7.5625,17.25 7.875,17.1875 8.09375,17.3125 L13.5,20.9375 C13.75,21.09375 13.78125,21.40625 13.625,21.625 L13.625,21.625 Z M7.46875,17.5 C7.34375,17.6875 7.375,17.96875 7.5625,18.09375 L13,21.71875 C13.1875,21.84375 13.4375,21.78125 13.5625,21.59375 C13.6875,21.40625 13.65625,21.125 13.46875,21 L8.03125,17.375 C7.84375,17.25 7.59375,17.3125 7.46875,17.5 L7.46875,17.5 Z"/>
          <path fill="#F3F3F3" fill-rule="nonzero" d="M12.4375,17.0625 C12.28125,17.25 12,17.3125 11.8125,17.15625 L9.53125,15.375 C9.34375,15.21875 9.3125,14.9375 9.46875,14.75 C9.625,14.5625 9.90625,14.5 10.09375,14.65625 L12.375,16.4375 C12.5625,16.59375 12.59375,16.875 12.4375,17.0625 L12.4375,17.0625 Z"/>
          <path fill="#FFF" fill-rule="nonzero" d="M12.46875,17.09375 C12.3125,17.3125 12,17.34375 11.78125,17.1875 L9.5,15.40625 C9.28125,15.25 9.25,14.9375 9.40625,14.71875 C9.5625,14.5 9.875,14.46875 10.09375,14.625 L12.375,16.40625 C12.59375,16.5625 12.625,16.875 12.46875,17.09375 L12.46875,17.09375 Z M9.46875,14.75 C9.3125,14.9375 9.34375,15.1875 9.53125,15.34375 L11.8125,17.125 C12,17.25 12.25,17.21875 12.40625,17.03125 C12.5625,16.84375 12.53125,16.59375 12.34375,16.4375 L10.0625,14.65625 C9.875,14.53125 9.625,14.5625 9.46875,14.75 L9.46875,14.75 Z"/>
          <path fill="#F3F3F3" fill-rule="nonzero" d="M17.09375,17.375 C16.90625,17.5625 16.625,17.5625 16.46875,17.375 L11.8125,12.78125 C11.625,12.59375 11.65625,12.3125 11.8125,12.15625 C12,11.96875 12.28125,11.96875 12.4375,12.15625 L17.0625,16.75 C17.25,16.90625 17.25,17.21875 17.09375,17.375 L17.09375,17.375 Z"/>
          <path fill="#FFF" fill-rule="nonzero" d="M17.09375,17.40625 C16.90625,17.59375 16.59375,17.59375 16.40625,17.40625 L11.78125,12.8125 C11.59375,12.625 11.59375,12.3125 11.78125,12.125 C11.96875,11.9375 12.28125,11.9375 12.46875,12.125 L17.09375,16.71875 C17.3125,16.90625 17.3125,17.21875 17.09375,17.40625 L17.09375,17.40625 Z M11.84375,12.1875 C11.6875,12.34375 11.6875,12.625 11.84375,12.78125 L16.46875,17.375 C16.625,17.53125 16.90625,17.53125 17.0625,17.375 C17.21875,17.21875 17.21875,16.9375 17.0625,16.78125 L12.4375,12.15625 C12.28125,12 12.03125,12 11.84375,12.1875 L11.84375,12.1875 Z"/>
          <path fill="#F3F3F3" fill-rule="nonzero" d="M16.8125,12.71875 C16.625,12.875 16.34375,12.875 16.1875,12.6875 L14.28125,10.5 C14.125,10.3125 14.15625,10.03125 14.34375,9.875 C14.53125,9.71875 14.8125,9.71875 14.96875,9.90625 L16.875,12.09375 C17.03125,12.25 17,12.53125 16.8125,12.71875 L16.8125,12.71875 Z"/>
          <path fill="#FFF" fill-rule="nonzero" d="M16.84375,12.71875 C16.625,12.90625 16.34375,12.875 16.15625,12.6875 L14.25,10.5 C14.0625,10.3125 14.09375,10 14.3125,9.8125 C14.53125,9.625 14.8125,9.65625 15,9.84375 L16.90625,12.03125 C17.0625,12.25 17.0625,12.5625 16.84375,12.71875 L16.84375,12.71875 Z M14.34375,9.875 C14.15625,10.03125 14.15625,10.28125 14.28125,10.46875 L16.1875,12.65625 C16.34375,12.8125 16.59375,12.84375 16.78125,12.6875 C16.96875,12.53125 16.96875,12.28125 16.84375,12.09375 L14.9375,9.90625 C14.78125,9.71875 14.53125,9.71875 14.34375,9.875 L14.34375,9.875 Z"/>
          <path fill="#F3F3F3" fill-rule="nonzero" d="M21.3125,13.90625 C21.09375,14.0625 20.8125,14 20.6875,13.78125 L17.03125,8.375 C16.90625,8.15625 16.96875,7.875 17.15625,7.75 C17.375,7.59375 17.65625,7.65625 17.78125,7.875 L21.40625,13.28125 C21.5625,13.5 21.5,13.78125 21.3125,13.90625 L21.3125,13.90625 Z"/>
          <path fill="#FFF" fill-rule="nonzero" d="M21.3125,13.9375 C21.09375,14.09375 20.78125,14.03125 20.625,13.8125 L17,8.40625 C16.84375,8.1875 16.90625,7.875 17.15625,7.71875 C17.375,7.5625 17.6875,7.625 17.84375,7.84375 L21.46875,13.25 C21.625,13.5 21.5625,13.78125 21.3125,13.9375 L21.3125,13.9375 Z M17.1875,7.78125 C17,7.90625 16.9375,8.15625 17.0625,8.34375 L20.6875,13.75 C20.8125,13.9375 21.0625,13.96875 21.28125,13.84375 C21.46875,13.71875 21.53125,13.46875 21.40625,13.28125 L17.78125,7.90625 C17.65625,7.71875 17.375,7.65625 17.1875,7.78125 L17.1875,7.78125 Z"/>
          <path fill="#F3F3F3" fill-rule="nonzero" d="M21.96875,9.28125 C21.75,9.40625 21.46875,9.34375 21.34375,9.125 L19.90625,6.59375 C19.78125,6.375 19.875,6.09375 20.09375,5.96875 C20.3125,5.84375 20.59375,5.90625 20.71875,6.125 L22.15625,8.65625 C22.25,8.875 22.1875,9.15625 21.96875,9.28125 L21.96875,9.28125 Z"/>
          <path fill="#FFF" fill-rule="nonzero" d="M21.96875,9.3125 C21.71875,9.4375 21.4375,9.375 21.3125,9.15625 L19.875,6.625 C19.75,6.40625 19.8125,6.09375 20.0625,5.96875 C20.3125,5.84375 20.59375,5.90625 20.71875,6.125 L22.15625,8.65625 C22.28125,8.875 22.21875,9.15625 21.96875,9.3125 L21.96875,9.3125 Z M20.09375,6 C19.90625,6.125 19.8125,6.375 19.9375,6.5625 L21.375,9.09375 C21.5,9.28125 21.75,9.34375 21.9375,9.25 C22.125,9.125 22.21875,8.875 22.09375,8.6875 L20.65625,6.15625 C20.5625,5.96875 20.28125,5.875 20.09375,6 L20.09375,6 Z"/>
          <path fill="#F3F3F3" fill-rule="nonzero" d="M26.125,11.34375 C25.875,11.4375 25.625,11.34375 25.53125,11.125 L23,5.09375 C22.90625,4.875 23.03125,4.59375 23.25,4.5 C23.5,4.40625 23.75,4.5 23.84375,4.71875 L26.375,10.75 C26.46875,10.96875 26.34375,11.25 26.125,11.34375 L26.125,11.34375 Z"/>
          <path fill="#FFF" fill-rule="nonzero" d="M26.125,11.375 C25.875,11.46875 25.59375,11.375 25.46875,11.125 L22.9375,5.09375 C22.84375,4.84375 22.96875,4.5625 23.21875,4.46875 C23.46875,4.375 23.75,4.46875 23.875,4.71875 L26.40625,10.75 C26.5,10.96875 26.375,11.25 26.125,11.375 L26.125,11.375 Z M23.28125,4.53125 C23.0625,4.625 22.96875,4.875 23.0625,5.0625 L25.59375,11.09375 C25.6875,11.3125 25.9375,11.40625 26.15625,11.3125 C26.375,11.21875 26.46875,10.96875 26.375,10.78125 L23.84375,4.75 C23.71875,4.53125 23.5,4.4375 23.28125,4.53125 L23.28125,4.53125 Z"/>
          <path fill="#F3F3F3" fill-rule="nonzero" d="M27.65625,6.90625 C27.40625,7 27.15625,6.875 27.0625,6.625 L26.15625,3.875 C26.0625,3.65625 26.21875,3.375 26.4375,3.3125 C26.65625,3.25 26.9375,3.34375 27.03125,3.59375 L27.9375,6.34375 C28.03125,6.5625 27.90625,6.8125 27.65625,6.90625 L27.65625,6.90625 Z"/>
          <path fill="#FFF" fill-rule="nonzero" d="M27.6875,6.9375 C27.4375,7.03125 27.15625,6.90625 27.0625,6.65625 L26.15625,3.90625 C26.0625,3.65625 26.21875,3.375 26.46875,3.28125 C26.71875,3.1875 27,3.3125 27.09375,3.5625 L28,6.3125 C28.0625,6.5625 27.9375,6.84375 27.6875,6.9375 L27.6875,6.9375 Z M26.46875,3.34375 C26.25,3.40625 26.125,3.65625 26.1875,3.875 L27.09375,6.625 C27.15625,6.84375 27.40625,6.9375 27.625,6.875 C27.84375,6.8125 27.96875,6.5625 27.90625,6.34375 L27,3.59375 C26.9375,3.375 26.6875,3.25 26.46875,3.34375 L26.46875,3.34375 Z"/>
          <path fill="#F3F3F3" fill-rule="nonzero" d="M31.34375,9.75 C31.09375,9.8125 30.84375,9.65625 30.8125,9.40625 L29.5,3 C29.4375,2.75 29.625,2.53125 29.875,2.46875 C30.125,2.40625 30.375,2.5625 30.40625,2.8125 L31.71875,9.21875 C31.75,9.4375 31.59375,9.6875 31.34375,9.75 L31.34375,9.75 Z"/>
          <path fill="#FFF" fill-rule="nonzero" d="M31.34375,9.78125 C31.0625,9.84375 30.8125,9.65625 30.75,9.40625 L29.4375,3 C29.375,2.75 29.5625,2.46875 29.8125,2.4375 C30.09375,2.375 30.34375,2.5625 30.40625,2.8125 L31.71875,9.21875 C31.78125,9.46875 31.625,9.71875 31.34375,9.78125 L31.34375,9.78125 Z M29.875,2.5 C29.65625,2.53125 29.5,2.75 29.53125,3 L30.84375,9.40625 C30.875,9.625 31.125,9.78125 31.34375,9.71875 C31.5625,9.6875 31.71875,9.46875 31.6875,9.21875 L30.375,2.8125 C30.3125,2.59375 30.09375,2.46875 29.875,2.5 L29.875,2.5 Z"/>
          <path fill="#F3F3F3" fill-rule="nonzero" d="M33.71875,5.6875 C33.46875,5.71875 33.25,5.5625 33.1875,5.3125 L32.8125,2.4375 C32.78125,2.1875 32.96875,1.96875 33.21875,1.9375 C33.46875,1.90625 33.6875,2.0625 33.75,2.3125 L34.125,5.1875 C34.15625,5.4375 33.96875,5.65625 33.71875,5.6875 L33.71875,5.6875 Z"/>
          <path fill="#FFF" fill-rule="nonzero" d="M33.71875,5.71875 C33.4375,5.75 33.1875,5.5625 33.15625,5.3125 L32.78125,2.4375 C32.75,2.1875 32.9375,1.9375 33.21875,1.90625 C33.5,1.875 33.75,2.0625 33.78125,2.3125 L34.15625,5.1875 C34.1875,5.4375 34,5.6875 33.71875,5.71875 L33.71875,5.71875 Z M33.25,1.96875 C33.03125,2 32.84375,2.21875 32.875,2.4375 L33.25,5.3125 C33.28125,5.53125 33.5,5.6875 33.71875,5.65625 C33.9375,5.625 34.125,5.40625 34.09375,5.1875 L33.71875,2.3125 C33.6875,2.09375 33.46875,1.9375 33.25,1.96875 L33.25,1.96875 Z"/>
          <circle cx="37.094" cy="37.156" r="37" fill="url(#supported-browsers-I)" fill-opacity=".2" fill-rule="nonzero"/>
        </g>
        <polygon fill="#000" fill-opacity=".05" fill-rule="nonzero" points="65.844 16.5 36 35.625 35.969 35.625 35.969 35.656 35.938 35.688 17.313 66.406 44.688 44.375 44.719 44.344 44.719 44.313"/>
        <polyline fill="#CD151E" fill-rule="nonzero" points="65.281 14.719 35.781 35.688 44.531 44.375 65.281 14.719"/>
        <polygon fill="#FA5153" fill-rule="nonzero" points="35.813 35.625 40.219 39.969 65.281 14.719"/>
        <polygon fill="#ACACAC" fill-rule="nonzero" points="35.813 35.625 44.563 44.313 15.063 65.281"/>
        <polygon fill="#EEE" fill-rule="nonzero" points="15.063 65.281 40.219 39.969 35.813 35.625"/>
      </g>
    </g>
    <g fill="#0078D7" fill-rule="nonzero" mask="url(#supported-browsers-c)">
      <path d="M76.7333333,37.6 C76.7333333,15.4666667 61.2666667,0.266666667 40.7333333,0 C20.0666667,0.266666667 5.66666667,15.0666667 3,35.7333333 C10.4666667,23.4666667 25.2666667,15.2 38.3333333,15.2 C49,15.2 54.7333333,20.9333333 54.7333333,32.2666667 L26.2,32.2666667 C26.7333333,27.4666667 28.8666667,22.5333333 31.8,19.6 C20.3333333,24.2666667 12.3333333,34.6666667 12.3333333,48.6666667 C12.3333333,66 25.6666667,80 45.1333333,80 C55,80 63,77.8666667 69.9333333,74.2666667 L69.9333333,57.3333333 C63.6666667,61.0666667 56.2,63.3333333 47.9333333,63.3333333 C35.5333333,63.3333333 26.6,57.3333333 26.6,46.4 L76.7333333,46.4 L76.7333333,37.6 Z" transform="translate(320 10)"/>
    </g>
    <rect width="110" height="100" x="410" fill="#E9FF00" fill-opacity=".3" fill-rule="nonzero" mask="url(#supported-browsers-c)"/>
    <g fill="#0078D7" fill-rule="nonzero" mask="url(#supported-browsers-c)">
      <path d="M79.4986175,42.043318 C79.4986175,35.7878341 77.8812903,29.9109677 75.0451613,24.8042396 C87.1340092,-2.55539171 62.0917972,1.45198157 60.6975115,1.72479263 C55.3920737,2.76294931 50.4836866,4.42967742 45.956129,6.54248848 C45.2884793,6.50488479 44.6167742,6.48423963 43.9399078,6.48423963 C27.0429493,6.48423963 12.8991705,18.2696774 9.27926267,34.0687558 C18.1850691,24.0776037 24.4176959,20.0462673 28.1500461,18.4329954 C27.5542857,18.9653456 26.9710599,19.5035945 26.3974194,20.0458986 C26.2064516,20.2261751 26.0224885,20.4090323 25.8341014,20.5904147 C25.4558525,20.9542857 25.078341,21.3185253 24.7096774,21.6860829 C24.4903226,21.9047005 24.2768664,22.1251613 24.0608295,22.3452535 C23.7338249,22.6781567 23.4075576,23.0106912 23.0882949,23.3454378 C22.8615668,23.5832258 22.6403687,23.8217512 22.4176959,24.0599078 C22.119447,24.3791705 21.8230415,24.6988018 21.5321659,25.0195392 C21.3061751,25.2687558 21.083871,25.5179724 20.8619355,25.7679263 C20.5861751,26.078341 20.3129954,26.3887558 20.0435023,26.6999078 C19.8200922,26.9579724 19.5985253,27.2160369 19.3795392,27.47447 C19.1240553,27.7760369 18.8718894,28.0776037 18.6223041,28.3791705 C18.4014747,28.6460829 18.1813825,28.9126267 17.9653456,29.1791705 C17.7316129,29.4674654 17.5030415,29.7553917 17.2748387,30.0429493 C17.0536406,30.321659 16.8324424,30.6 16.6164055,30.878341 C16.4106912,31.1434101 16.2108756,31.4073733 16.0095853,31.6717051 C15.7824885,31.9703226 15.5535484,32.2689401 15.3323502,32.5660829 C15.1741935,32.7788018 15.0223041,32.9893088 14.8670968,33.2012903 C13.4621198,35.118341 12.1784332,36.9985253 11.0189862,38.8046083 C11.0160369,38.8090323 11.0130876,38.8134562 11.0105069,38.8178802 C10.7052535,39.2934562 10.4106912,39.7620276 10.1220276,40.2265438 C10.1065438,40.2516129 10.0903226,40.2770507 10.0748387,40.3024885 C9.78580645,40.7688479 9.50672811,41.2270968 9.23465438,41.680553 C9.22506912,41.6964055 9.21511521,41.7126267 9.20552995,41.7284793 C8.47410138,42.9491244 7.79576037,44.1258986 7.18488479,45.2329954 C3.98230415,51.0368664 2.42322581,55.0917972 2.35576037,55.3325346 C-7.75741935,91.4881106 23.8060829,76.2199078 28.2105069,73.9408295 C32.9529954,76.2836866 38.2919816,77.6023963 43.9399078,77.6023963 C59.401659,77.6023963 72.556682,67.7329032 77.4532719,53.9504147 L58.7694009,53.9504147 C56.0047926,58.6210138 50.6823963,61.7845161 44.5677419,61.7845161 C35.6088479,61.7845161 28.3465438,54.996682 28.3465438,46.6232258 L79.2073733,46.6232258 C79.4001843,45.1235023 79.5000922,43.595023 79.5000922,42.043318 L79.4986175,42.043318 Z M72.8560369,7.05124424 C75.9181567,9.11797235 78.3741935,12.3636866 74.1563134,23.2941935 C70.1109677,16.7883871 64.0247005,11.684977 56.7907834,8.87981567 C60.0814747,7.29050691 68.2307834,3.92903226 72.8560369,7.05124424 L72.8560369,7.05124424 Z M7.77953917,73.8678341 C5.28552995,71.3100461 4.84460829,65.0803687 10.3480184,53.7284793 C13.12553,61.7141014 18.6680184,68.4053456 25.8318894,72.6519816 C22.2691244,74.6129032 12.8106912,79.0280184 7.77953917,73.8678341 Z M28.2665438,36.8982488 C28.5507834,28.76 35.6335484,22.243871 44.3358525,22.243871 C53.037788,22.243871 60.1209217,28.76 60.4051613,36.8982488 L28.2665438,36.8982488 L28.2665438,36.8982488 Z" transform="translate(420 10)"/>
    </g>
  </g>
</svg>
